<svg width="580" height="700" viewBox="0 0 580 700" fill="none" xmlns="http://www.w3.org/2000/svg">
<g clip-path="url(#clip0_427_986)">
<path d="M0 48C0 21.4903 21.4903 0 48 0H532C558.51 0 580 21.4903 580 48V652C580 678.51 558.51 700 532 700H48C21.4903 700 0 678.51 0 652V48Z" fill="#22252A"/>
<g filter="url(#filter0_b_427_986)">
<g clip-path="url(#clip1_427_986)">
<rect x="10" y="378" width="560" height="490" rx="24" fill="#16181D" fill-opacity="0.94"/>
<path d="M45.2074 410.344C45.1278 409.599 44.7926 409.02 44.2017 408.605C43.6165 408.19 42.8551 407.983 41.9176 407.983C41.2585 407.983 40.6932 408.082 40.2216 408.281C39.75 408.48 39.3892 408.75 39.1392 409.091C38.8892 409.432 38.7614 409.821 38.7557 410.259C38.7557 410.622 38.8381 410.937 39.0028 411.205C39.1733 411.472 39.4034 411.699 39.6932 411.886C39.983 412.068 40.304 412.222 40.6562 412.347C41.0085 412.472 41.3636 412.577 41.7216 412.662L43.358 413.071C44.017 413.224 44.6506 413.432 45.2585 413.693C45.8722 413.955 46.4205 414.284 46.9034 414.682C47.392 415.08 47.7784 415.56 48.0625 416.122C48.3466 416.685 48.4886 417.344 48.4886 418.099C48.4886 419.122 48.2273 420.023 47.7045 420.801C47.1818 421.574 46.4261 422.179 45.4375 422.616C44.4545 423.048 43.2642 423.264 41.8665 423.264C40.5085 423.264 39.3295 423.054 38.3295 422.634C37.3352 422.213 36.5568 421.599 35.9943 420.793C35.4375 419.986 35.1364 419.003 35.0909 417.844H38.2017C38.2472 418.452 38.4347 418.957 38.7642 419.361C39.0938 419.764 39.5227 420.065 40.0511 420.264C40.5852 420.463 41.1818 420.562 41.8409 420.562C42.5284 420.562 43.1307 420.46 43.6477 420.256C44.1705 420.045 44.5795 419.756 44.875 419.386C45.1705 419.011 45.321 418.574 45.3267 418.074C45.321 417.619 45.1875 417.244 44.9261 416.949C44.6648 416.648 44.2983 416.398 43.8267 416.199C43.3608 415.994 42.8153 415.812 42.1903 415.653L40.2045 415.142C38.767 414.773 37.6307 414.213 36.7955 413.463C35.9659 412.707 35.5511 411.705 35.5511 410.455C35.5511 409.426 35.8295 408.526 36.3864 407.753C36.9489 406.98 37.7131 406.381 38.679 405.955C39.6449 405.523 40.7386 405.307 41.9602 405.307C43.1989 405.307 44.2841 405.523 45.2159 405.955C46.1534 406.381 46.8892 406.974 47.4233 407.736C47.9574 408.491 48.233 409.361 48.25 410.344H45.2074ZM53.3929 423L49.694 409.909H52.8389L55.14 419.114H55.2593L57.6116 409.909H60.7224L63.0747 419.062H63.2025L65.4696 409.909H68.623L64.9156 423H61.7025L59.248 414.153H59.069L56.6145 423H53.3929ZM74.0641 423.264C73.2346 423.264 72.4874 423.116 71.8227 422.821C71.1636 422.52 70.6409 422.077 70.2545 421.491C69.8738 420.906 69.6835 420.185 69.6835 419.327C69.6835 418.588 69.8198 417.977 70.0926 417.494C70.3653 417.011 70.7374 416.625 71.209 416.335C71.6806 416.045 72.2119 415.827 72.8028 415.679C73.3994 415.526 74.0159 415.415 74.6522 415.347C75.4193 415.267 76.0414 415.196 76.5187 415.134C76.996 415.065 77.3426 414.963 77.5585 414.827C77.7801 414.685 77.8909 414.466 77.8909 414.17V414.119C77.8909 413.477 77.7005 412.98 77.3198 412.628C76.9391 412.276 76.3909 412.099 75.6749 412.099C74.9193 412.099 74.3198 412.264 73.8766 412.594C73.4391 412.923 73.1437 413.312 72.9903 413.761L70.1096 413.352C70.3369 412.557 70.7119 411.892 71.2346 411.358C71.7573 410.818 72.3965 410.415 73.1522 410.148C73.9079 409.875 74.7431 409.739 75.6579 409.739C76.2886 409.739 76.9164 409.812 77.5414 409.96C78.1664 410.108 78.7374 410.352 79.2545 410.693C79.7715 411.028 80.1863 411.486 80.4988 412.065C80.817 412.645 80.9761 413.369 80.9761 414.239V423H78.0102V421.202H77.9079C77.7204 421.565 77.4562 421.906 77.1153 422.224C76.7801 422.537 76.3568 422.79 75.8454 422.983C75.3397 423.17 74.746 423.264 74.0641 423.264ZM74.8653 420.997C75.4846 420.997 76.0215 420.875 76.4761 420.631C76.9306 420.381 77.2801 420.051 77.5244 419.642C77.7744 419.233 77.8994 418.787 77.8994 418.304V416.761C77.8028 416.841 77.638 416.915 77.4051 416.983C77.1778 417.051 76.9221 417.111 76.638 417.162C76.3539 417.213 76.0727 417.259 75.7943 417.298C75.5159 417.338 75.2744 417.372 75.0698 417.401C74.6096 417.463 74.1977 417.565 73.834 417.707C73.4704 417.849 73.1835 418.048 72.9732 418.304C72.763 418.554 72.6579 418.878 72.6579 419.276C72.6579 419.844 72.8653 420.273 73.2801 420.562C73.6948 420.852 74.2232 420.997 74.8653 420.997ZM83.5984 427.909V409.909H86.6324V412.074H86.8114C86.9705 411.756 87.1949 411.418 87.4847 411.06C87.7745 410.696 88.1665 410.386 88.6609 410.131C89.1552 409.869 89.7859 409.739 90.5529 409.739C91.5643 409.739 92.4762 409.997 93.2887 410.514C94.1069 411.026 94.7546 411.784 95.2319 412.79C95.7148 413.79 95.9563 415.017 95.9563 416.472C95.9563 417.909 95.7205 419.131 95.2489 420.136C94.7773 421.142 94.1353 421.909 93.3228 422.438C92.5103 422.966 91.5898 423.23 90.5614 423.23C89.8114 423.23 89.1893 423.105 88.6949 422.855C88.2006 422.605 87.8029 422.304 87.5018 421.952C87.2063 421.594 86.9762 421.256 86.8114 420.938H86.6836V427.909H83.5984ZM86.6239 416.455C86.6239 417.301 86.7432 418.043 86.9819 418.679C87.2262 419.315 87.5756 419.812 88.0302 420.17C88.4904 420.523 89.0472 420.699 89.7006 420.699C90.3824 420.699 90.9535 420.517 91.4137 420.153C91.8739 419.784 92.2205 419.281 92.4535 418.645C92.6921 418.003 92.8114 417.273 92.8114 416.455C92.8114 415.642 92.6949 414.92 92.462 414.29C92.229 413.659 91.8824 413.165 91.4222 412.807C90.962 412.449 90.3881 412.27 89.7006 412.27C89.0415 412.27 88.4819 412.443 88.0216 412.79C87.5614 413.136 87.212 413.622 86.9734 414.247C86.7404 414.872 86.6239 415.608 86.6239 416.455ZM109.302 423.256C107.995 423.256 106.873 422.969 105.935 422.395C105.003 421.821 104.285 421.028 103.779 420.017C103.279 419 103.029 417.83 103.029 416.506C103.029 415.176 103.285 414.003 103.796 412.986C104.307 411.963 105.029 411.168 105.961 410.599C106.898 410.026 108.006 409.739 109.285 409.739C110.347 409.739 111.287 409.935 112.106 410.327C112.93 410.713 113.586 411.261 114.074 411.972C114.563 412.676 114.841 413.5 114.91 414.443H111.961C111.841 413.812 111.557 413.287 111.109 412.866C110.665 412.44 110.072 412.227 109.327 412.227C108.697 412.227 108.143 412.398 107.665 412.739C107.188 413.074 106.816 413.557 106.549 414.188C106.287 414.818 106.157 415.574 106.157 416.455C106.157 417.347 106.287 418.114 106.549 418.756C106.81 419.392 107.177 419.884 107.648 420.23C108.126 420.571 108.685 420.741 109.327 420.741C109.782 420.741 110.188 420.656 110.546 420.486C110.91 420.31 111.214 420.057 111.458 419.727C111.702 419.398 111.87 418.997 111.961 418.526H114.91C114.836 419.452 114.563 420.273 114.091 420.989C113.62 421.699 112.978 422.256 112.165 422.659C111.353 423.057 110.398 423.256 109.302 423.256ZM122.673 423.256C121.395 423.256 120.287 422.974 119.349 422.412C118.412 421.849 117.685 421.062 117.168 420.051C116.656 419.04 116.401 417.858 116.401 416.506C116.401 415.153 116.656 413.969 117.168 412.952C117.685 411.935 118.412 411.145 119.349 410.582C120.287 410.02 121.395 409.739 122.673 409.739C123.952 409.739 125.06 410.02 125.997 410.582C126.935 411.145 127.659 411.935 128.17 412.952C128.687 413.969 128.946 415.153 128.946 416.506C128.946 417.858 128.687 419.04 128.17 420.051C127.659 421.062 126.935 421.849 125.997 422.412C125.06 422.974 123.952 423.256 122.673 423.256ZM122.69 420.784C123.383 420.784 123.963 420.594 124.429 420.213C124.895 419.827 125.241 419.31 125.469 418.662C125.702 418.014 125.818 417.293 125.818 416.497C125.818 415.696 125.702 414.972 125.469 414.324C125.241 413.67 124.895 413.151 124.429 412.764C123.963 412.378 123.383 412.185 122.69 412.185C121.98 412.185 121.389 412.378 120.918 412.764C120.452 413.151 120.102 413.67 119.869 414.324C119.642 414.972 119.528 415.696 119.528 416.497C119.528 417.293 119.642 418.014 119.869 418.662C120.102 419.31 120.452 419.827 120.918 420.213C121.389 420.594 121.98 420.784 122.69 420.784ZM131.085 423V409.909H134.17V423H131.085ZM132.636 408.051C132.147 408.051 131.727 407.889 131.374 407.565C131.022 407.236 130.846 406.841 130.846 406.381C130.846 405.915 131.022 405.52 131.374 405.196C131.727 404.866 132.147 404.702 132.636 404.702C133.13 404.702 133.551 404.866 133.897 405.196C134.249 405.52 134.426 405.915 134.426 406.381C134.426 406.841 134.249 407.236 133.897 407.565C133.551 407.889 133.13 408.051 132.636 408.051ZM139.948 415.33V423H136.862V409.909H139.811V412.134H139.965C140.266 411.401 140.746 410.818 141.405 410.386C142.07 409.955 142.891 409.739 143.868 409.739C144.772 409.739 145.558 409.932 146.229 410.318C146.905 410.705 147.428 411.264 147.797 411.997C148.172 412.73 148.357 413.619 148.351 414.665V423H145.266V415.142C145.266 414.267 145.039 413.582 144.584 413.088C144.135 412.594 143.513 412.347 142.718 412.347C142.178 412.347 141.698 412.466 141.277 412.705C140.862 412.937 140.536 413.276 140.297 413.719C140.064 414.162 139.948 414.699 139.948 415.33ZM161.354 413.369L158.542 413.676C158.462 413.392 158.323 413.125 158.124 412.875C157.931 412.625 157.669 412.423 157.34 412.27C157.01 412.116 156.607 412.04 156.13 412.04C155.488 412.04 154.948 412.179 154.51 412.457C154.078 412.736 153.865 413.097 153.871 413.54C153.865 413.92 154.005 414.23 154.289 414.469C154.578 414.707 155.056 414.903 155.72 415.057L157.953 415.534C159.192 415.801 160.113 416.224 160.715 416.804C161.323 417.384 161.63 418.142 161.635 419.08C161.63 419.903 161.388 420.631 160.911 421.261C160.439 421.886 159.783 422.375 158.942 422.727C158.101 423.08 157.135 423.256 156.044 423.256C154.442 423.256 153.152 422.92 152.175 422.25C151.198 421.574 150.615 420.634 150.428 419.429L153.436 419.139C153.573 419.73 153.863 420.176 154.306 420.477C154.749 420.778 155.326 420.929 156.036 420.929C156.769 420.929 157.357 420.778 157.8 420.477C158.249 420.176 158.473 419.804 158.473 419.361C158.473 418.986 158.328 418.676 158.039 418.432C157.755 418.187 157.311 418 156.709 417.869L154.476 417.401C153.22 417.139 152.292 416.699 151.689 416.08C151.087 415.455 150.789 414.665 150.794 413.71C150.789 412.903 151.007 412.205 151.451 411.614C151.899 411.017 152.522 410.557 153.317 410.233C154.118 409.903 155.042 409.739 156.087 409.739C157.621 409.739 158.828 410.065 159.709 410.719C160.595 411.372 161.144 412.256 161.354 413.369Z" fill="white"/>
<path d="M358.447 462V453.273H361.643C362.262 453.273 362.775 453.375 363.181 453.58C363.588 453.781 363.892 454.055 364.093 454.402C364.295 454.746 364.396 455.134 364.396 455.565C364.396 455.929 364.329 456.236 364.196 456.486C364.062 456.733 363.883 456.932 363.659 457.082C363.437 457.23 363.193 457.338 362.926 457.406V457.491C363.216 457.506 363.498 457.599 363.774 457.773C364.052 457.943 364.282 458.186 364.464 458.501C364.646 458.817 364.737 459.2 364.737 459.652C364.737 460.098 364.632 460.499 364.422 460.854C364.214 461.206 363.893 461.486 363.458 461.693C363.024 461.898 362.468 462 361.792 462H358.447ZM359.764 460.871H361.664C362.295 460.871 362.747 460.749 363.02 460.504C363.292 460.26 363.429 459.955 363.429 459.588C363.429 459.312 363.359 459.06 363.22 458.83C363.081 458.599 362.882 458.416 362.623 458.28C362.368 458.143 362.064 458.075 361.711 458.075H359.764V460.871ZM359.764 457.048H361.528C361.824 457.048 362.089 456.991 362.325 456.878C362.564 456.764 362.752 456.605 362.892 456.401C363.034 456.193 363.105 455.949 363.105 455.668C363.105 455.307 362.978 455.004 362.725 454.76C362.473 454.516 362.085 454.393 361.562 454.393H359.764V457.048ZM368.101 462.145C367.686 462.145 367.311 462.068 366.976 461.915C366.641 461.759 366.375 461.533 366.179 461.237C365.986 460.942 365.89 460.58 365.89 460.151C365.89 459.781 365.961 459.477 366.103 459.239C366.245 459 366.436 458.811 366.678 458.672C366.919 458.533 367.189 458.428 367.488 458.357C367.786 458.286 368.09 458.232 368.4 458.195C368.792 458.149 369.11 458.112 369.354 458.084C369.598 458.053 369.776 458.003 369.887 457.935C369.998 457.866 370.053 457.756 370.053 457.602V457.572C370.053 457.2 369.948 456.912 369.738 456.707C369.53 456.503 369.221 456.401 368.809 456.401C368.38 456.401 368.042 456.496 367.794 456.686C367.55 456.874 367.381 457.082 367.287 457.312L366.09 457.04C366.232 456.642 366.439 456.321 366.712 456.077C366.988 455.83 367.304 455.651 367.662 455.54C368.02 455.426 368.397 455.369 368.792 455.369C369.053 455.369 369.33 455.401 369.623 455.463C369.918 455.523 370.194 455.634 370.449 455.795C370.708 455.957 370.919 456.189 371.084 456.49C371.249 456.788 371.331 457.176 371.331 457.653V462H370.087V461.105H370.036C369.953 461.27 369.83 461.432 369.665 461.591C369.5 461.75 369.289 461.882 369.03 461.987C368.772 462.092 368.462 462.145 368.101 462.145ZM368.378 461.122C368.73 461.122 369.032 461.053 369.282 460.913C369.534 460.774 369.726 460.592 369.857 460.368C369.99 460.141 370.057 459.898 370.057 459.639V458.795C370.012 458.841 369.924 458.884 369.793 458.923C369.665 458.96 369.519 458.993 369.354 459.021C369.189 459.047 369.029 459.071 368.873 459.094C368.716 459.114 368.586 459.131 368.48 459.145C368.233 459.176 368.007 459.229 367.803 459.303C367.601 459.376 367.439 459.483 367.317 459.622C367.198 459.759 367.138 459.94 367.138 460.168C367.138 460.483 367.255 460.722 367.488 460.884C367.721 461.043 368.017 461.122 368.378 461.122ZM374.303 453.273V462H373.028V453.273H374.303ZM377.922 462.145C377.507 462.145 377.132 462.068 376.797 461.915C376.461 461.759 376.196 461.533 376 461.237C375.806 460.942 375.71 460.58 375.71 460.151C375.71 459.781 375.781 459.477 375.923 459.239C376.065 459 376.257 458.811 376.498 458.672C376.74 458.533 377.01 458.428 377.308 458.357C377.606 458.286 377.91 458.232 378.22 458.195C378.612 458.149 378.93 458.112 379.174 458.084C379.419 458.053 379.596 458.003 379.707 457.935C379.818 457.866 379.873 457.756 379.873 457.602V457.572C379.873 457.2 379.768 456.912 379.558 456.707C379.35 456.503 379.041 456.401 378.629 456.401C378.2 456.401 377.862 456.496 377.615 456.686C377.37 456.874 377.201 457.082 377.108 457.312L375.91 457.04C376.052 456.642 376.26 456.321 376.532 456.077C376.808 455.83 377.125 455.651 377.483 455.54C377.841 455.426 378.217 455.369 378.612 455.369C378.873 455.369 379.15 455.401 379.443 455.463C379.738 455.523 380.014 455.634 380.27 455.795C380.528 455.957 380.74 456.189 380.904 456.49C381.069 456.788 381.152 457.176 381.152 457.653V462H379.907V461.105H379.856C379.774 461.27 379.65 461.432 379.485 461.591C379.321 461.75 379.109 461.882 378.85 461.987C378.592 462.092 378.282 462.145 377.922 462.145ZM378.199 461.122C378.551 461.122 378.852 461.053 379.102 460.913C379.355 460.774 379.547 460.592 379.677 460.368C379.811 460.141 379.877 459.898 379.877 459.639V458.795C379.832 458.841 379.744 458.884 379.613 458.923C379.485 458.96 379.339 458.993 379.174 459.021C379.01 459.047 378.849 459.071 378.693 459.094C378.537 459.114 378.406 459.131 378.301 459.145C378.054 459.176 377.828 459.229 377.623 459.303C377.422 459.376 377.26 459.483 377.137 459.622C377.018 459.759 376.958 459.94 376.958 460.168C376.958 460.483 377.075 460.722 377.308 460.884C377.541 461.043 377.838 461.122 378.199 461.122ZM384.123 458.114V462H382.849V455.455H384.072V456.52H384.153C384.303 456.173 384.539 455.895 384.86 455.685C385.184 455.474 385.592 455.369 386.083 455.369C386.529 455.369 386.92 455.463 387.255 455.651C387.59 455.835 387.85 456.111 388.035 456.477C388.219 456.844 388.312 457.297 388.312 457.837V462H387.038V457.99C387.038 457.516 386.914 457.145 386.667 456.878C386.42 456.608 386.08 456.473 385.648 456.473C385.353 456.473 385.09 456.537 384.86 456.665C384.633 456.793 384.452 456.98 384.319 457.227C384.188 457.472 384.123 457.767 384.123 458.114ZM392.778 462.132C392.144 462.132 391.599 461.989 391.141 461.702C390.687 461.412 390.337 461.013 390.093 460.504C389.849 459.996 389.727 459.413 389.727 458.757C389.727 458.092 389.852 457.506 390.102 456.997C390.352 456.486 390.704 456.087 391.158 455.8C391.613 455.513 392.148 455.369 392.765 455.369C393.262 455.369 393.705 455.462 394.094 455.646C394.484 455.828 394.798 456.084 395.036 456.413C395.278 456.743 395.421 457.128 395.467 457.568H394.227C394.158 457.261 394.002 456.997 393.758 456.776C393.516 456.554 393.192 456.443 392.786 456.443C392.431 456.443 392.12 456.537 391.853 456.724C391.589 456.909 391.383 457.173 391.235 457.517C391.087 457.858 391.013 458.261 391.013 458.727C391.013 459.205 391.086 459.616 391.231 459.963C391.376 460.31 391.58 460.578 391.844 460.768C392.112 460.959 392.425 461.054 392.786 461.054C393.028 461.054 393.246 461.01 393.442 460.922C393.641 460.831 393.808 460.702 393.941 460.534C394.077 460.366 394.173 460.165 394.227 459.929H395.467C395.421 460.352 395.283 460.73 395.053 461.062C394.823 461.395 394.515 461.656 394.129 461.847C393.745 462.037 393.295 462.132 392.778 462.132ZM399.65 462.132C399.005 462.132 398.45 461.994 397.984 461.719C397.521 461.44 397.163 461.05 396.91 460.547C396.66 460.041 396.535 459.449 396.535 458.77C396.535 458.099 396.66 457.509 396.91 456.997C397.163 456.486 397.515 456.087 397.967 455.8C398.422 455.513 398.953 455.369 399.561 455.369C399.93 455.369 400.288 455.43 400.635 455.553C400.981 455.675 401.292 455.866 401.568 456.128C401.843 456.389 402.061 456.729 402.22 457.146C402.379 457.561 402.458 458.065 402.458 458.659V459.111H397.255V458.156H401.21C401.21 457.821 401.142 457.524 401.005 457.266C400.869 457.004 400.677 456.798 400.43 456.648C400.186 456.497 399.899 456.422 399.569 456.422C399.211 456.422 398.899 456.51 398.632 456.686C398.368 456.859 398.163 457.087 398.018 457.368C397.876 457.646 397.805 457.949 397.805 458.276V459.021C397.805 459.459 397.882 459.831 398.035 460.138C398.191 460.445 398.409 460.679 398.687 460.841C398.966 461 399.291 461.08 399.663 461.08C399.904 461.08 400.125 461.045 400.324 460.977C400.522 460.906 400.694 460.801 400.839 460.662C400.984 460.523 401.095 460.351 401.172 460.146L402.377 460.364C402.281 460.719 402.108 461.03 401.858 461.297C401.61 461.561 401.299 461.767 400.924 461.915C400.552 462.06 400.127 462.132 399.65 462.132Z" fill="white" fill-opacity="0.36"/>
<path d="M410.342 453.273V462H409.021V454.594H408.97L406.882 455.957V454.696L409.059 453.273H410.342ZM415.741 462.145C415.068 462.142 414.493 461.964 414.015 461.612C413.538 461.26 413.173 460.747 412.92 460.074C412.667 459.401 412.541 458.589 412.541 457.641C412.541 456.695 412.667 455.886 412.92 455.216C413.176 454.545 413.542 454.034 414.02 453.682C414.5 453.33 415.074 453.153 415.741 453.153C416.409 453.153 416.981 453.331 417.458 453.686C417.936 454.038 418.301 454.55 418.554 455.22C418.809 455.888 418.937 456.695 418.937 457.641C418.937 458.592 418.811 459.405 418.558 460.078C418.305 460.749 417.94 461.261 417.463 461.616C416.985 461.969 416.412 462.145 415.741 462.145ZM415.741 461.007C416.332 461.007 416.794 460.719 417.126 460.142C417.461 459.565 417.629 458.732 417.629 457.641C417.629 456.916 417.552 456.304 417.399 455.804C417.248 455.301 417.031 454.92 416.747 454.662C416.466 454.401 416.13 454.27 415.741 454.27C415.153 454.27 414.691 454.56 414.356 455.139C414.021 455.719 413.852 456.553 413.849 457.641C413.849 458.368 413.924 458.983 414.075 459.486C414.228 459.986 414.446 460.365 414.727 460.624C415.008 460.879 415.346 461.007 415.741 461.007ZM423.487 462.145C422.814 462.142 422.239 461.964 421.761 461.612C421.284 461.26 420.919 460.747 420.666 460.074C420.413 459.401 420.287 458.589 420.287 457.641C420.287 456.695 420.413 455.886 420.666 455.216C420.922 454.545 421.288 454.034 421.766 453.682C422.246 453.33 422.82 453.153 423.487 453.153C424.155 453.153 424.727 453.331 425.205 453.686C425.682 454.038 426.047 454.55 426.3 455.22C426.555 455.888 426.683 456.695 426.683 457.641C426.683 458.592 426.557 459.405 426.304 460.078C426.051 460.749 425.686 461.261 425.209 461.616C424.732 461.969 424.158 462.145 423.487 462.145ZM423.487 461.007C424.078 461.007 424.54 460.719 424.872 460.142C425.207 459.565 425.375 458.732 425.375 457.641C425.375 456.916 425.298 456.304 425.145 455.804C424.994 455.301 424.777 454.92 424.493 454.662C424.212 454.401 423.876 454.27 423.487 454.27C422.899 454.27 422.438 454.56 422.102 455.139C421.767 455.719 421.598 456.553 421.595 457.641C421.595 458.368 421.67 458.983 421.821 459.486C421.974 459.986 422.192 460.365 422.473 460.624C422.754 460.879 423.092 461.007 423.487 461.007ZM428.735 462.081C428.502 462.081 428.302 461.999 428.134 461.834C427.967 461.666 427.883 461.464 427.883 461.229C427.883 460.996 427.967 460.797 428.134 460.632C428.302 460.464 428.502 460.381 428.735 460.381C428.968 460.381 429.168 460.464 429.336 460.632C429.504 460.797 429.587 460.996 429.587 461.229C429.587 461.385 429.548 461.528 429.468 461.659C429.391 461.787 429.289 461.889 429.161 461.966C429.033 462.043 428.891 462.081 428.735 462.081ZM433.999 462.145C433.326 462.142 432.75 461.964 432.273 461.612C431.796 461.26 431.431 460.747 431.178 460.074C430.925 459.401 430.799 458.589 430.799 457.641C430.799 456.695 430.925 455.886 431.178 455.216C431.434 454.545 431.8 454.034 432.277 453.682C432.757 453.33 433.331 453.153 433.999 453.153C434.667 453.153 435.239 453.331 435.716 453.686C436.194 454.038 436.559 454.55 436.811 455.22C437.067 455.888 437.195 456.695 437.195 457.641C437.195 458.592 437.069 459.405 436.816 460.078C436.563 460.749 436.198 461.261 435.721 461.616C435.243 461.969 434.669 462.145 433.999 462.145ZM433.999 461.007C434.59 461.007 435.051 460.719 435.384 460.142C435.719 459.565 435.887 458.732 435.887 457.641C435.887 456.916 435.81 456.304 435.657 455.804C435.506 455.301 435.289 454.92 435.005 454.662C434.723 454.401 434.388 454.27 433.999 454.27C433.411 454.27 432.949 454.56 432.614 455.139C432.279 455.719 432.11 456.553 432.107 457.641C432.107 458.368 432.182 458.983 432.333 459.486C432.486 459.986 432.703 460.365 432.985 460.624C433.266 460.879 433.604 461.007 433.999 461.007ZM441.609 453.153C441.998 453.156 442.381 453.227 442.759 453.366C443.137 453.506 443.478 453.733 443.782 454.048C444.089 454.364 444.333 454.79 444.515 455.327C444.7 455.861 444.793 456.526 444.796 457.321C444.796 458.085 444.719 458.766 444.566 459.362C444.413 459.956 444.192 460.457 443.906 460.866C443.621 461.276 443.276 461.587 442.87 461.8C442.464 462.013 442.006 462.119 441.498 462.119C440.978 462.119 440.516 462.017 440.113 461.812C439.71 461.608 439.381 461.325 439.129 460.964C438.876 460.601 438.718 460.183 438.656 459.712H439.955C440.04 460.087 440.214 460.391 440.475 460.624C440.739 460.854 441.08 460.969 441.498 460.969C442.137 460.969 442.636 460.69 442.994 460.134C443.352 459.574 443.532 458.793 443.535 457.79H443.467C443.319 458.034 443.134 458.244 442.913 458.42C442.694 458.597 442.448 458.733 442.175 458.83C441.903 458.926 441.612 458.974 441.302 458.974C440.799 458.974 440.342 458.851 439.93 458.604C439.518 458.357 439.19 458.017 438.945 457.585C438.701 457.153 438.579 456.661 438.579 456.107C438.579 455.555 438.704 455.055 438.954 454.607C439.207 454.158 439.559 453.803 440.011 453.541C440.465 453.277 440.998 453.148 441.609 453.153ZM441.613 454.261C441.281 454.261 440.981 454.344 440.714 454.509C440.45 454.67 440.241 454.891 440.087 455.169C439.934 455.445 439.857 455.751 439.857 456.089C439.857 456.428 439.931 456.734 440.079 457.01C440.229 457.283 440.434 457.5 440.692 457.662C440.954 457.821 441.252 457.901 441.587 457.901C441.837 457.901 442.07 457.852 442.286 457.756C442.502 457.659 442.691 457.526 442.853 457.355C443.015 457.182 443.141 456.986 443.232 456.767C443.323 456.548 443.369 456.318 443.369 456.077C443.369 455.756 443.292 455.457 443.138 455.182C442.988 454.906 442.781 454.685 442.516 454.517C442.252 454.347 441.951 454.261 441.613 454.261ZM446.152 460.295V459.23L449.924 453.273H450.763V454.841H450.23L447.533 459.111V459.179H452.702V460.295H446.152ZM450.29 462V459.972L450.299 459.486V453.273H451.547V462H450.29ZM457.068 462.119C456.534 462.119 456.054 462.017 455.627 461.812C455.204 461.605 454.866 461.321 454.613 460.96C454.36 460.599 454.225 460.188 454.208 459.724H455.487C455.518 460.099 455.684 460.408 455.985 460.649C456.287 460.891 456.647 461.011 457.068 461.011C457.403 461.011 457.7 460.935 457.958 460.781C458.22 460.625 458.424 460.411 458.572 460.138C458.723 459.865 458.798 459.554 458.798 459.205C458.798 458.849 458.721 458.533 458.568 458.254C458.414 457.976 458.203 457.757 457.933 457.598C457.666 457.439 457.359 457.358 457.012 457.355C456.748 457.355 456.483 457.401 456.216 457.491C455.949 457.582 455.733 457.702 455.568 457.849L454.362 457.67L454.852 453.273H459.65V454.402H455.947L455.67 456.844H455.721C455.892 456.679 456.118 456.541 456.399 456.43C456.683 456.32 456.987 456.264 457.311 456.264C457.842 456.264 458.315 456.391 458.73 456.643C459.147 456.896 459.475 457.241 459.714 457.679C459.956 458.114 460.075 458.614 460.072 459.179C460.075 459.744 459.947 460.249 459.689 460.692C459.433 461.135 459.078 461.484 458.623 461.74C458.172 461.993 457.653 462.119 457.068 462.119ZM464.667 462.145C463.994 462.142 463.418 461.964 462.941 461.612C462.464 461.26 462.099 460.747 461.846 460.074C461.593 459.401 461.467 458.589 461.467 457.641C461.467 456.695 461.593 455.886 461.846 455.216C462.102 454.545 462.468 454.034 462.945 453.682C463.425 453.33 463.999 453.153 464.667 453.153C465.335 453.153 465.907 453.331 466.384 453.686C466.862 454.038 467.227 454.55 467.479 455.22C467.735 455.888 467.863 456.695 467.863 457.641C467.863 458.592 467.737 459.405 467.484 460.078C467.231 460.749 466.866 461.261 466.388 461.616C465.911 461.969 465.337 462.145 464.667 462.145ZM464.667 461.007C465.258 461.007 465.719 460.719 466.052 460.142C466.387 459.565 466.555 458.732 466.555 457.641C466.555 456.916 466.478 456.304 466.325 455.804C466.174 455.301 465.957 454.92 465.673 454.662C465.391 454.401 465.056 454.27 464.667 454.27C464.079 454.27 463.617 454.56 463.282 455.139C462.947 455.719 462.778 456.553 462.775 457.641C462.775 458.368 462.85 458.983 463.001 459.486C463.154 459.986 463.371 460.365 463.653 460.624C463.934 460.879 464.272 461.007 464.667 461.007ZM472.686 453.273V462H471.365V454.594H471.314L469.225 455.957V454.696L471.403 453.273H472.686ZM478.342 462V453.273H483.754V454.406H479.658V457.065H483.366V458.195H479.658V462H478.342ZM484.942 454.406V453.273H491.697V454.406H488.974V462H487.661V454.406H484.942ZM493.189 453.273H494.787L497.566 460.057H497.668L500.446 453.273H502.044V462H500.792V455.685H500.711L498.137 461.987H497.097L494.523 455.68H494.442V462H493.189V453.273Z" fill="white"/>
<path d="M35.2784 462V450.364H42.4943V451.875H37.0341V455.42H41.9773V456.926H37.0341V462H35.2784ZM44.1677 462V453.273H45.8097V454.659H45.9006C46.0597 454.189 46.34 453.82 46.7415 453.551C47.1468 453.278 47.6052 453.142 48.1165 453.142C48.2226 453.142 48.3476 453.146 48.4915 453.153C48.6393 453.161 48.7548 453.17 48.8381 453.182V454.807C48.7699 454.788 48.6487 454.767 48.4745 454.744C48.3002 454.718 48.126 454.705 47.9518 454.705C47.5502 454.705 47.1923 454.79 46.8779 454.96C46.5673 455.127 46.3211 455.36 46.1393 455.659C45.9574 455.955 45.8665 456.292 45.8665 456.67V462H44.1677ZM53.4319 462.176C52.6138 462.176 51.8997 461.989 51.2899 461.614C50.68 461.239 50.2066 460.714 49.8694 460.04C49.5323 459.366 49.3638 458.578 49.3638 457.676C49.3638 456.771 49.5323 455.979 49.8694 455.301C50.2066 454.623 50.68 454.097 51.2899 453.722C51.8997 453.347 52.6138 453.159 53.4319 453.159C54.2501 453.159 54.9641 453.347 55.574 453.722C56.1838 454.097 56.6573 454.623 56.9944 455.301C57.3316 455.979 57.5001 456.771 57.5001 457.676C57.5001 458.578 57.3316 459.366 56.9944 460.04C56.6573 460.714 56.1838 461.239 55.574 461.614C54.9641 461.989 54.2501 462.176 53.4319 462.176ZM53.4376 460.75C53.9679 460.75 54.4073 460.61 54.7558 460.33C55.1043 460.049 55.3619 459.676 55.5285 459.21C55.699 458.744 55.7842 458.231 55.7842 457.67C55.7842 457.114 55.699 456.602 55.5285 456.136C55.3619 455.667 55.1043 455.29 54.7558 455.006C54.4073 454.722 53.9679 454.58 53.4376 454.58C52.9035 454.58 52.4603 454.722 52.1081 455.006C51.7596 455.29 51.5001 455.667 51.3297 456.136C51.163 456.602 51.0797 457.114 51.0797 457.67C51.0797 458.231 51.163 458.744 51.3297 459.21C51.5001 459.676 51.7596 460.049 52.1081 460.33C52.4603 460.61 52.9035 460.75 53.4376 460.75ZM59.1564 462V453.273H60.7871V454.693H60.8951C61.0769 454.212 61.3742 453.837 61.7871 453.568C62.2 453.295 62.6943 453.159 63.2701 453.159C63.8534 453.159 64.342 453.295 64.736 453.568C65.1337 453.841 65.4273 454.216 65.6166 454.693H65.7076C65.9159 454.227 66.2473 453.856 66.7019 453.58C67.1564 453.299 67.6981 453.159 68.3269 453.159C69.1185 453.159 69.7644 453.407 70.2644 453.903C70.7682 454.4 71.0201 455.148 71.0201 456.148V462H69.3212V456.307C69.3212 455.716 69.1602 455.288 68.8382 455.023C68.5163 454.758 68.1318 454.625 67.6848 454.625C67.1318 454.625 66.7019 454.795 66.3951 455.136C66.0882 455.473 65.9348 455.907 65.9348 456.438V462H64.2416V456.199C64.2416 455.725 64.0939 455.345 63.7985 455.057C63.503 454.769 63.1185 454.625 62.6451 454.625C62.3231 454.625 62.0257 454.71 61.753 454.881C61.4841 455.047 61.2663 455.28 61.0996 455.58C60.9367 455.879 60.8553 456.225 60.8553 456.619V462H59.1564Z" fill="white" fill-opacity="0.36"/>
<rect x="511" y="448" width="35" height="18" rx="6" fill="#43A1F7" fill-opacity="0.16"/>
<path d="M516.959 452.273H518.557L521.335 459.057H521.438L524.216 452.273H525.814V461H524.561V454.685H524.48L521.906 460.987H520.866L518.293 454.68H518.212V461H516.959V452.273ZM529.531 461.145C529.116 461.145 528.741 461.068 528.406 460.915C528.071 460.759 527.805 460.533 527.609 460.237C527.416 459.942 527.319 459.58 527.319 459.151C527.319 458.781 527.39 458.477 527.532 458.239C527.674 458 527.866 457.811 528.108 457.672C528.349 457.533 528.619 457.428 528.917 457.357C529.216 457.286 529.52 457.232 529.829 457.195C530.221 457.149 530.539 457.112 530.784 457.084C531.028 457.053 531.206 457.003 531.316 456.935C531.427 456.866 531.483 456.756 531.483 456.602V456.572C531.483 456.2 531.377 455.912 531.167 455.707C530.96 455.503 530.65 455.401 530.238 455.401C529.809 455.401 529.471 455.496 529.224 455.686C528.98 455.874 528.811 456.082 528.717 456.312L527.52 456.04C527.662 455.642 527.869 455.321 528.142 455.077C528.417 454.83 528.734 454.651 529.092 454.54C529.45 454.426 529.826 454.369 530.221 454.369C530.483 454.369 530.76 454.401 531.052 454.463C531.348 454.523 531.623 454.634 531.879 454.795C532.137 454.957 532.349 455.189 532.514 455.49C532.679 455.788 532.761 456.176 532.761 456.653V461H531.517V460.105H531.466C531.383 460.27 531.26 460.432 531.095 460.591C530.93 460.75 530.718 460.882 530.46 460.987C530.201 461.092 529.892 461.145 529.531 461.145ZM529.808 460.122C530.16 460.122 530.461 460.053 530.711 459.913C530.964 459.774 531.156 459.592 531.287 459.368C531.42 459.141 531.487 458.898 531.487 458.639V457.795C531.441 457.841 531.353 457.884 531.223 457.923C531.095 457.96 530.949 457.993 530.784 458.021C530.619 458.047 530.458 458.071 530.302 458.094C530.146 458.114 530.015 458.131 529.91 458.145C529.663 458.176 529.437 458.229 529.233 458.303C529.031 458.376 528.869 458.483 528.747 458.622C528.627 458.759 528.568 458.94 528.568 459.168C528.568 459.483 528.684 459.722 528.917 459.884C529.15 460.043 529.447 460.122 529.808 460.122ZM535.464 454.455L536.908 457.003L538.366 454.455H539.759L537.718 457.727L539.776 461H538.383L536.908 458.554L535.438 461H534.04L536.077 457.727L534.066 454.455H535.464Z" fill="#43A1F7"/>
<g filter="url(#filter1_d_427_986)">
<rect x="26" y="476" width="528" height="94" rx="20" fill="white" fill-opacity="0.04" shape-rendering="crispEdges"/>
<path d="M57.6847 499.636V520H54.6023V502.719H54.483L49.6108 505.901V502.957L54.6918 499.636H57.6847ZM69.7227 520.338C68.1516 520.331 66.8093 519.917 65.6957 519.095C64.582 518.273 63.7302 517.077 63.1403 515.506C62.5503 513.935 62.2553 512.042 62.2553 509.828C62.2553 507.621 62.5503 505.735 63.1403 504.17C63.7369 502.606 64.592 501.413 65.7056 500.591C66.8259 499.769 68.1649 499.358 69.7227 499.358C71.2804 499.358 72.6161 499.772 73.7298 500.601C74.8434 501.423 75.6952 502.616 76.2852 504.18C76.8818 505.738 77.1801 507.621 77.1801 509.828C77.1801 512.049 76.8851 513.945 76.2951 515.516C75.7052 517.08 74.8534 518.277 73.7397 519.105C72.6261 519.927 71.2871 520.338 69.7227 520.338ZM69.7227 517.683C71.1015 517.683 72.1786 517.01 72.9542 515.665C73.7364 514.319 74.1275 512.374 74.1275 509.828C74.1275 508.138 73.9485 506.709 73.5906 505.543C73.2392 504.369 72.7321 503.481 72.0693 502.878C71.413 502.268 70.6308 501.963 69.7227 501.963C68.3505 501.963 67.2733 502.639 66.4911 503.991C65.7089 505.344 65.3145 507.289 65.3079 509.828C65.3079 511.525 65.4836 512.96 65.8349 514.134C66.1928 515.3 66.6999 516.185 67.3562 516.788C68.0124 517.385 68.8013 517.683 69.7227 517.683ZM87.2369 520.338C85.6659 520.331 84.3235 519.917 83.2099 519.095C82.0963 518.273 81.2445 517.077 80.6545 515.506C80.0645 513.935 79.7696 512.042 79.7696 509.828C79.7696 507.621 80.0645 505.735 80.6545 504.17C81.2511 502.606 82.1062 501.413 83.2198 500.591C84.3401 499.769 85.6791 499.358 87.2369 499.358C88.7947 499.358 90.1304 499.772 91.244 500.601C92.3576 501.423 93.2094 502.616 93.7994 504.18C94.396 505.738 94.6943 507.621 94.6943 509.828C94.6943 512.049 94.3993 513.945 93.8093 515.516C93.2194 517.08 92.3676 518.277 91.2539 519.105C90.1403 519.927 88.8013 520.338 87.2369 520.338ZM87.2369 517.683C88.6157 517.683 89.6929 517.01 90.4684 515.665C91.2506 514.319 91.6417 512.374 91.6417 509.828C91.6417 508.138 91.4627 506.709 91.1048 505.543C90.7535 504.369 90.2464 503.481 89.5835 502.878C88.9272 502.268 88.145 501.963 87.2369 501.963C85.8647 501.963 84.7876 502.639 84.0054 503.991C83.2232 505.344 82.8287 507.289 82.8221 509.828C82.8221 511.525 82.9978 512.96 83.3491 514.134C83.7071 515.3 84.2142 516.185 84.8704 516.788C85.5267 517.385 86.3155 517.683 87.2369 517.683ZM98.9219 520.189C98.3784 520.189 97.911 519.997 97.5199 519.612C97.1288 519.221 96.9333 518.75 96.9333 518.2C96.9333 517.657 97.1288 517.193 97.5199 516.808C97.911 516.417 98.3784 516.222 98.9219 516.222C99.4655 516.222 99.9328 516.417 100.324 516.808C100.715 517.193 100.911 517.657 100.911 518.2C100.911 518.565 100.818 518.9 100.632 519.205C100.453 519.503 100.215 519.741 99.9162 519.92C99.6179 520.099 99.2865 520.189 98.9219 520.189ZM110.644 520.338C109.073 520.331 107.731 519.917 106.617 519.095C105.504 518.273 104.652 517.077 104.062 515.506C103.472 513.935 103.177 512.042 103.177 509.828C103.177 507.621 103.472 505.735 104.062 504.17C104.658 502.606 105.514 501.413 106.627 500.591C107.747 499.769 109.086 499.358 110.644 499.358C112.202 499.358 113.538 499.772 114.651 500.601C115.765 501.423 116.617 502.616 117.207 504.18C117.803 505.738 118.102 507.621 118.102 509.828C118.102 512.049 117.807 513.945 117.217 515.516C116.627 517.08 115.775 518.277 114.661 519.105C113.548 519.927 112.209 520.338 110.644 520.338ZM110.644 517.683C112.023 517.683 113.1 517.01 113.876 515.665C114.658 514.319 115.049 512.374 115.049 509.828C115.049 508.138 114.87 506.709 114.512 505.543C114.161 504.369 113.654 503.481 112.991 502.878C112.335 502.268 111.552 501.963 110.644 501.963C109.272 501.963 108.195 502.639 107.413 503.991C106.631 505.344 106.236 507.289 106.229 509.828C106.229 511.525 106.405 512.96 106.756 514.134C107.114 515.3 107.622 516.185 108.278 516.788C108.934 517.385 109.723 517.683 110.644 517.683ZM127.84 499.358C128.748 499.365 129.643 499.53 130.525 499.855C131.407 500.18 132.202 500.71 132.911 501.446C133.627 502.182 134.197 503.176 134.622 504.429C135.052 505.675 135.271 507.226 135.278 509.082C135.278 510.866 135.099 512.453 134.741 513.845C134.383 515.231 133.869 516.401 133.2 517.355C132.537 518.31 131.731 519.036 130.783 519.533C129.836 520.03 128.768 520.278 127.582 520.278C126.369 520.278 125.291 520.04 124.35 519.562C123.409 519.085 122.643 518.426 122.053 517.584C121.463 516.735 121.095 515.761 120.95 514.661H123.982C124.181 515.536 124.586 516.245 125.195 516.788C125.812 517.325 126.607 517.594 127.582 517.594C129.073 517.594 130.237 516.944 131.072 515.645C131.907 514.339 132.328 512.516 132.335 510.176H132.175C131.831 510.746 131.4 511.237 130.883 511.648C130.372 512.059 129.799 512.377 129.163 512.602C128.526 512.828 127.847 512.94 127.124 512.94C125.951 512.94 124.884 512.652 123.923 512.075C122.961 511.499 122.196 510.706 121.626 509.699C121.056 508.691 120.771 507.541 120.771 506.249C120.771 504.963 121.062 503.796 121.646 502.749C122.236 501.701 123.058 500.873 124.112 500.263C125.172 499.646 126.415 499.345 127.84 499.358ZM127.85 501.943C127.075 501.943 126.375 502.135 125.752 502.52C125.136 502.898 124.649 503.411 124.291 504.061C123.933 504.704 123.754 505.42 123.754 506.209C123.754 506.998 123.926 507.714 124.271 508.357C124.622 508.993 125.099 509.5 125.702 509.878C126.312 510.249 127.008 510.435 127.791 510.435C128.374 510.435 128.917 510.322 129.421 510.097C129.925 509.871 130.366 509.56 130.744 509.162C131.122 508.758 131.416 508.3 131.629 507.79C131.841 507.279 131.947 506.742 131.947 506.179C131.947 505.43 131.768 504.734 131.41 504.091C131.059 503.448 130.575 502.931 129.958 502.54C129.342 502.142 128.639 501.943 127.85 501.943ZM137.882 516.023V513.537L146.682 499.636H148.641V503.295H147.398L141.104 513.259V513.418H153.165V516.023H137.882ZM147.537 520V515.267L147.557 514.134V499.636H150.47V520H147.537ZM162.792 520.278C161.545 520.278 160.425 520.04 159.431 519.562C158.443 519.079 157.654 518.416 157.064 517.574C156.474 516.732 156.16 515.771 156.12 514.69H159.103C159.176 515.565 159.563 516.285 160.266 516.848C160.969 517.411 161.811 517.693 162.792 517.693C163.574 517.693 164.267 517.514 164.87 517.156C165.48 516.792 165.957 516.291 166.302 515.655C166.653 515.018 166.829 514.293 166.829 513.477C166.829 512.649 166.65 511.91 166.292 511.26C165.934 510.61 165.44 510.1 164.81 509.729C164.187 509.357 163.471 509.169 162.662 509.162C162.046 509.162 161.426 509.268 160.803 509.48C160.18 509.692 159.676 509.971 159.292 510.315L156.478 509.898L157.621 499.636H168.817V502.271H160.177L159.53 507.969H159.65C160.047 507.584 160.574 507.263 161.231 507.004C161.893 506.746 162.603 506.616 163.358 506.616C164.598 506.616 165.702 506.911 166.669 507.501C167.644 508.091 168.41 508.897 168.966 509.918C169.53 510.932 169.808 512.098 169.802 513.418C169.808 514.737 169.51 515.913 168.907 516.947C168.31 517.982 167.482 518.797 166.421 519.393C165.367 519.983 164.157 520.278 162.792 520.278ZM179.963 520.338C178.392 520.331 177.049 519.917 175.936 519.095C174.822 518.273 173.97 517.077 173.38 515.506C172.79 513.935 172.495 512.042 172.495 509.828C172.495 507.621 172.79 505.735 173.38 504.17C173.977 502.606 174.832 501.413 175.946 500.591C177.066 499.769 178.405 499.358 179.963 499.358C181.521 499.358 182.856 499.772 183.97 500.601C185.084 501.423 185.935 502.616 186.525 504.18C187.122 505.738 187.42 507.621 187.42 509.828C187.42 512.049 187.125 513.945 186.535 515.516C185.945 517.08 185.094 518.277 183.98 519.105C182.866 519.927 181.527 520.338 179.963 520.338ZM179.963 517.683C181.342 517.683 182.419 517.01 183.194 515.665C183.977 514.319 184.368 512.374 184.368 509.828C184.368 508.138 184.189 506.709 183.831 505.543C183.479 504.369 182.972 503.481 182.309 502.878C181.653 502.268 180.871 501.963 179.963 501.963C178.591 501.963 177.513 502.639 176.731 503.991C175.949 505.344 175.555 507.289 175.548 509.828C175.548 511.525 175.724 512.96 176.075 514.134C176.433 515.3 176.94 516.185 177.596 516.788C178.253 517.385 179.041 517.683 179.963 517.683ZM198.113 499.636V520H195.031V502.719H194.912L190.04 505.901V502.957L195.121 499.636H198.113Z" fill="white"/>
<path d="M49.1236 542.457C49.1203 541.88 49.2098 541.414 49.392 541.06C49.5777 540.702 49.8246 540.44 50.1328 540.274C50.4444 540.108 50.7841 540.026 51.152 540.026C51.4901 540.026 51.795 540.097 52.0668 540.239C52.3419 540.379 52.6567 540.596 53.0114 540.891C53.25 541.089 53.4422 541.23 53.5881 541.313C53.7339 541.396 53.893 541.438 54.0653 541.438C54.3404 541.438 54.5559 541.338 54.7116 541.139C54.8707 540.94 54.947 540.649 54.9403 540.264H56.1982C56.2081 540.834 56.1186 541.3 55.9297 541.661C55.7441 542.019 55.4938 542.284 55.179 542.457C54.8674 542.626 54.526 542.71 54.1548 542.71C53.8267 542.71 53.5234 542.642 53.245 542.506C52.9666 542.371 52.6468 542.147 52.2855 541.835C52.0535 541.636 51.8679 541.497 51.7287 541.418C51.5895 541.338 51.4337 541.298 51.2614 541.298C50.9995 541.298 50.7857 541.389 50.62 541.572C50.4543 541.751 50.3748 542.046 50.3814 542.457H49.1236ZM49.1236 545.539C49.1203 544.962 49.2098 544.497 49.392 544.142C49.5777 543.784 49.8246 543.522 50.1328 543.357C50.4444 543.191 50.7841 543.108 51.152 543.108C51.4901 543.108 51.795 543.179 52.0668 543.322C52.3419 543.461 52.6567 543.678 53.0114 543.973C53.25 544.172 53.4422 544.313 53.5881 544.396C53.7339 544.478 53.893 544.52 54.0653 544.52C54.3404 544.52 54.5559 544.42 54.7116 544.222C54.8707 544.023 54.947 543.731 54.9403 543.347H56.1982C56.2081 543.917 56.1186 544.382 55.9297 544.744C55.7441 545.102 55.4938 545.367 55.179 545.539C54.8674 545.708 54.526 545.793 54.1548 545.793C53.8267 545.793 53.5234 545.725 53.245 545.589C52.9666 545.453 52.6468 545.229 52.2855 544.918C52.0535 544.719 51.8679 544.58 51.7287 544.5C51.5895 544.42 51.4337 544.381 51.2614 544.381C50.9995 544.381 50.7857 544.472 50.62 544.654C50.4543 544.833 50.3748 545.128 50.3814 545.539H49.1236ZM64.8707 549.273V536.545H65.6861V549.273H64.8707ZM67.4212 540.493C67.3681 540.022 67.1494 539.658 66.7649 539.399C66.3805 539.137 65.8966 539.006 65.3132 539.006C64.8956 539.006 64.5343 539.073 64.2294 539.205C63.9245 539.335 63.6875 539.513 63.5185 539.742C63.3528 539.968 63.2699 540.224 63.2699 540.513C63.2699 540.755 63.3262 540.964 63.4389 541.139C63.5549 541.315 63.7057 541.462 63.8913 541.582C64.0803 541.698 64.2824 541.795 64.4979 541.875C64.7133 541.951 64.9205 542.014 65.1193 542.064L66.1136 542.322C66.4385 542.402 66.7716 542.51 67.1129 542.646C67.4543 542.781 67.7708 542.96 68.0625 543.183C68.3542 543.405 68.5895 543.68 68.7685 544.008C68.9508 544.336 69.0419 544.729 69.0419 545.186C69.0419 545.763 68.8928 546.275 68.5945 546.722C68.2995 547.17 67.8703 547.523 67.3068 547.781C66.7467 548.04 66.0689 548.169 65.2734 548.169C64.5111 548.169 63.8516 548.048 63.2948 547.806C62.7379 547.564 62.3021 547.221 61.9872 546.777C61.6724 546.33 61.4984 545.799 61.4652 545.186H63.0064C63.0362 545.554 63.1555 545.861 63.3644 546.106C63.5765 546.348 63.8466 546.528 64.1747 546.648C64.5062 546.764 64.8691 546.822 65.2635 546.822C65.6977 546.822 66.0838 546.754 66.4219 546.618C66.7633 546.479 67.0317 546.286 67.2273 546.041C67.4228 545.793 67.5206 545.503 67.5206 545.171C67.5206 544.87 67.4344 544.623 67.2621 544.43C67.093 544.238 66.8627 544.079 66.571 543.953C66.2827 543.827 65.9562 543.716 65.5916 543.62L64.3885 543.292C63.5732 543.07 62.9269 542.743 62.4496 542.312C61.9756 541.882 61.7386 541.312 61.7386 540.602C61.7386 540.016 61.8977 539.504 62.2159 539.066C62.5341 538.629 62.965 538.289 63.5085 538.047C64.0521 537.802 64.6653 537.679 65.348 537.679C66.0374 537.679 66.6456 537.8 67.1726 538.042C67.7029 538.284 68.1205 538.617 68.4254 539.041C68.7304 539.462 68.8894 539.946 68.9027 540.493H67.4212ZM70.5985 548V546.886L74.0438 543.317C74.4117 542.929 74.7149 542.589 74.9536 542.298C75.1955 542.003 75.3762 541.723 75.4955 541.457C75.6148 541.192 75.6745 540.911 75.6745 540.612C75.6745 540.274 75.5949 539.982 75.4358 539.737C75.2767 539.489 75.0596 539.298 74.7845 539.165C74.5095 539.03 74.1996 538.962 73.8549 538.962C73.4903 538.962 73.1721 539.036 72.9003 539.185C72.6285 539.335 72.4197 539.545 72.2739 539.817C72.1281 540.089 72.0551 540.407 72.0551 540.771H70.5885C70.5885 540.152 70.731 539.61 71.0161 539.146C71.3011 538.682 71.6922 538.322 72.1894 538.067C72.6865 537.808 73.2516 537.679 73.8847 537.679C74.5244 537.679 75.0878 537.807 75.575 538.062C76.0656 538.314 76.4484 538.658 76.7235 539.096C76.9986 539.53 77.1361 540.021 77.1361 540.567C77.1361 540.945 77.0648 541.315 76.9223 541.676C76.7831 542.037 76.5395 542.44 76.1915 542.884C75.8435 543.325 75.3596 543.86 74.7398 544.49L72.7164 546.608V546.683H77.3002V548H70.5985ZM82.4052 548.139C81.7821 548.139 81.222 548.02 80.7248 547.781C80.231 547.539 79.8365 547.208 79.5416 546.787C79.2466 546.366 79.0891 545.885 79.0693 545.345H80.5607C80.5972 545.783 80.7911 546.142 81.1424 546.424C81.4937 546.706 81.9147 546.847 82.4052 546.847C82.7963 546.847 83.1427 546.757 83.4443 546.578C83.7492 546.396 83.9878 546.146 84.1602 545.827C84.3358 545.509 84.4237 545.146 84.4237 544.739C84.4237 544.324 84.3342 543.955 84.1552 543.63C83.9762 543.305 83.7293 543.05 83.4144 542.864C83.1029 542.679 82.7449 542.584 82.3406 542.581C82.0323 542.581 81.7224 542.634 81.4109 542.74C81.0993 542.846 80.8474 542.985 80.6552 543.158L79.2482 542.949L79.82 537.818H85.418V539.136H81.0977L80.7745 541.984H80.8342C81.033 541.792 81.2965 541.631 81.6247 541.502C81.9561 541.373 82.3107 541.308 82.6886 541.308C83.3084 541.308 83.8602 541.456 84.3441 541.751C84.8313 542.046 85.2141 542.448 85.4926 542.959C85.7743 543.466 85.9135 544.049 85.9102 544.709C85.9135 545.368 85.7643 545.957 85.4627 546.474C85.1644 546.991 84.7501 547.398 84.2198 547.697C83.6928 547.992 83.088 548.139 82.4052 548.139ZM87.3723 546.011V544.768L91.7721 537.818H92.7515V539.648H92.1301L88.9831 544.629V544.709H95.0136V546.011H87.3723ZM92.1997 548V545.634L92.2096 545.067V537.818H93.6663V548H92.1997ZM98.1772 546.608L98.1026 547.15C98.0529 547.548 97.9684 547.962 97.8491 548.393C97.7331 548.827 97.6121 549.23 97.4862 549.601C97.3635 549.972 97.2625 550.267 97.1829 550.486H96.1289C96.172 550.28 96.2317 550.002 96.3079 549.651C96.3841 549.303 96.4587 548.913 96.5316 548.482C96.6045 548.051 96.6592 547.612 96.6957 547.165L96.7454 546.608H98.1772ZM100.117 548V546.886L103.562 543.317C103.93 542.929 104.233 542.589 104.472 542.298C104.714 542.003 104.894 541.723 105.014 541.457C105.133 541.192 105.193 540.911 105.193 540.612C105.193 540.274 105.113 539.982 104.954 539.737C104.795 539.489 104.578 539.298 104.303 539.165C104.028 539.03 103.718 538.962 103.373 538.962C103.008 538.962 102.69 539.036 102.418 539.185C102.147 539.335 101.938 539.545 101.792 539.817C101.646 540.089 101.573 540.407 101.573 540.771H100.107C100.107 540.152 100.249 539.61 100.534 539.146C100.819 538.682 101.21 538.322 101.708 538.067C102.205 537.808 102.77 537.679 103.403 537.679C104.042 537.679 104.606 537.807 105.093 538.062C105.584 538.314 105.966 538.658 106.242 539.096C106.517 539.53 106.654 540.021 106.654 540.567C106.654 540.945 106.583 541.315 106.44 541.676C106.301 542.037 106.058 542.44 105.71 542.884C105.362 543.325 104.878 543.86 104.258 544.49L102.234 546.608V546.683H106.818V548H100.117ZM112.425 537.818V548H110.884V539.359H110.825L108.389 540.95V539.479L110.929 537.818H112.425Z" fill="white" fill-opacity="0.36"/>
<g filter="url(#filter2_d_427_986)">
<rect x="416" y="484" width="130" height="52" rx="18" fill="#14151A"/>
<g filter="url(#filter3_d_427_986)">
<path d="M430 510C430 503.373 435.373 498 442 498C448.627 498 454 503.373 454 510C454 516.627 448.627 522 442 522C435.373 522 430 516.627 430 510Z" fill="#13B5EC"/>
<path fill-rule="evenodd" clip-rule="evenodd" d="M442.9 507.675L445.6 506.1V509.25L442.9 507.675ZM445.6 514.425L442 516.525L438.4 514.425V510.75L442 512.85L445.6 510.75V514.425ZM438.4 506.1L441.1 507.675L438.4 509.25V506.1ZM442.45 508.425L445.15 510L442.45 511.575V508.425ZM441.55 511.575L438.85 510L441.55 508.425V511.575ZM445.15 505.35L442 507.15L438.85 505.35L442 503.475L445.15 505.35ZM437.5 505.05V514.875L442 517.425L446.5 514.875V505.05L442 502.5L437.5 505.05Z" fill="white"/>
</g>
<path d="M463.148 516V504.364H470.602V506.131H465.256V509.29H470.091V511.057H465.256V516H463.148ZM471.771 506.131V504.364H481.055V506.131H477.459V516H475.368V506.131H471.771ZM482.605 504.364H485.185L488.639 512.795H488.776L492.23 504.364H494.81V516H492.787V508.006H492.679L489.463 515.966H487.952L484.736 507.989H484.628V516H482.605V504.364Z" fill="white"/>
<path d="M527.707 509.118C527.664 509.669 527.012 510.321 525.708 511.625L525.708 511.625C525.107 512.226 524.806 512.527 524.463 512.639C524.162 512.736 523.838 512.736 523.536 512.639C523.194 512.527 522.893 512.226 522.291 511.625C520.988 510.321 520.336 509.669 520.292 509.118C520.255 508.639 520.449 508.171 520.814 507.859C521.234 507.5 522.156 507.5 524 507.5C525.843 507.5 526.765 507.5 527.186 507.859C527.551 508.171 527.745 508.639 527.707 509.118Z" fill="white" fill-opacity="0.24"/>
</g>
<rect x="26.5" y="476.5" width="527" height="93" rx="19.5" stroke="white" stroke-opacity="0.05" shape-rendering="crispEdges"/>
</g>
<path d="M438.537 608V599.273H441.733C442.352 599.273 442.865 599.375 443.271 599.58C443.678 599.781 443.982 600.055 444.183 600.402C444.385 600.746 444.486 601.134 444.486 601.565C444.486 601.929 444.419 602.236 444.286 602.486C444.152 602.733 443.973 602.932 443.749 603.082C443.527 603.23 443.283 603.338 443.016 603.406V603.491C443.305 603.506 443.588 603.599 443.864 603.773C444.142 603.943 444.372 604.186 444.554 604.501C444.736 604.817 444.827 605.2 444.827 605.652C444.827 606.098 444.722 606.499 444.511 606.854C444.304 607.206 443.983 607.486 443.548 607.693C443.114 607.898 442.558 608 441.882 608H438.537ZM439.854 606.871H441.754C442.385 606.871 442.837 606.749 443.109 606.504C443.382 606.26 443.518 605.955 443.518 605.588C443.518 605.312 443.449 605.06 443.31 604.83C443.17 604.599 442.972 604.416 442.713 604.28C442.457 604.143 442.153 604.075 441.801 604.075H439.854V606.871ZM439.854 603.048H441.618C441.913 603.048 442.179 602.991 442.415 602.878C442.653 602.764 442.842 602.605 442.982 602.401C443.124 602.193 443.195 601.949 443.195 601.668C443.195 601.307 443.068 601.004 442.815 600.76C442.563 600.516 442.175 600.393 441.652 600.393H439.854V603.048ZM448.191 608.145C447.776 608.145 447.401 608.068 447.066 607.915C446.731 607.759 446.465 607.533 446.269 607.237C446.076 606.942 445.979 606.58 445.979 606.151C445.979 605.781 446.05 605.477 446.192 605.239C446.335 605 446.526 604.811 446.768 604.672C447.009 604.533 447.279 604.428 447.577 604.357C447.876 604.286 448.18 604.232 448.489 604.195C448.881 604.149 449.2 604.112 449.444 604.084C449.688 604.053 449.866 604.003 449.977 603.935C450.087 603.866 450.143 603.756 450.143 603.602V603.572C450.143 603.2 450.038 602.912 449.827 602.707C449.62 602.503 449.31 602.401 448.898 602.401C448.469 602.401 448.131 602.496 447.884 602.686C447.64 602.874 447.471 603.082 447.377 603.312L446.18 603.04C446.322 602.642 446.529 602.321 446.802 602.077C447.077 601.83 447.394 601.651 447.752 601.54C448.11 601.426 448.487 601.369 448.881 601.369C449.143 601.369 449.42 601.401 449.712 601.463C450.008 601.523 450.283 601.634 450.539 601.795C450.798 601.957 451.009 602.189 451.174 602.49C451.339 602.788 451.421 603.176 451.421 603.653V608H450.177V607.105H450.126C450.043 607.27 449.92 607.432 449.755 607.591C449.59 607.75 449.379 607.882 449.12 607.987C448.862 608.092 448.552 608.145 448.191 608.145ZM448.468 607.122C448.82 607.122 449.121 607.053 449.371 606.913C449.624 606.774 449.816 606.592 449.947 606.368C450.08 606.141 450.147 605.898 450.147 605.639V604.795C450.102 604.841 450.013 604.884 449.883 604.923C449.755 604.96 449.609 604.993 449.444 605.021C449.279 605.047 449.119 605.071 448.962 605.094C448.806 605.114 448.675 605.131 448.57 605.145C448.323 605.176 448.097 605.229 447.893 605.303C447.691 605.376 447.529 605.483 447.407 605.622C447.288 605.759 447.228 605.94 447.228 606.168C447.228 606.483 447.344 606.722 447.577 606.884C447.81 607.043 448.107 607.122 448.468 607.122ZM454.392 599.273V608H453.118V599.273H454.392ZM458.011 608.145C457.597 608.145 457.222 608.068 456.886 607.915C456.551 607.759 456.286 607.533 456.089 607.237C455.896 606.942 455.8 606.58 455.8 606.151C455.8 605.781 455.871 605.477 456.013 605.239C456.155 605 456.347 604.811 456.588 604.672C456.83 604.533 457.099 604.428 457.398 604.357C457.696 604.286 458 604.232 458.31 604.195C458.702 604.149 459.02 604.112 459.264 604.084C459.509 604.053 459.686 604.003 459.797 603.935C459.908 603.866 459.963 603.756 459.963 603.602V603.572C459.963 603.2 459.858 602.912 459.648 602.707C459.44 602.503 459.131 602.401 458.719 602.401C458.29 602.401 457.952 602.496 457.705 602.686C457.46 602.874 457.291 603.082 457.197 603.312L456 603.04C456.142 602.642 456.349 602.321 456.622 602.077C456.898 601.83 457.214 601.651 457.572 601.54C457.93 601.426 458.307 601.369 458.702 601.369C458.963 601.369 459.24 601.401 459.533 601.463C459.828 601.523 460.104 601.634 460.359 601.795C460.618 601.957 460.83 602.189 460.994 602.49C461.159 602.788 461.241 603.176 461.241 603.653V608H459.997V607.105H459.946C459.864 607.27 459.74 607.432 459.575 607.591C459.411 607.75 459.199 607.882 458.94 607.987C458.682 608.092 458.372 608.145 458.011 608.145ZM458.288 607.122C458.641 607.122 458.942 607.053 459.192 606.913C459.445 606.774 459.636 606.592 459.767 606.368C459.901 606.141 459.967 605.898 459.967 605.639V604.795C459.922 604.841 459.834 604.884 459.703 604.923C459.575 604.96 459.429 604.993 459.264 605.021C459.099 605.047 458.939 605.071 458.783 605.094C458.626 605.114 458.496 605.131 458.391 605.145C458.143 605.176 457.918 605.229 457.713 605.303C457.511 605.376 457.349 605.483 457.227 605.622C457.108 605.759 457.048 605.94 457.048 606.168C457.048 606.483 457.165 606.722 457.398 606.884C457.631 607.043 457.928 607.122 458.288 607.122ZM464.213 604.114V608H462.939V601.455H464.162V602.52H464.243C464.393 602.173 464.629 601.895 464.95 601.685C465.274 601.474 465.681 601.369 466.173 601.369C466.619 601.369 467.01 601.463 467.345 601.651C467.68 601.835 467.94 602.111 468.125 602.477C468.309 602.844 468.402 603.297 468.402 603.837V608H467.127V603.99C467.127 603.516 467.004 603.145 466.757 602.878C466.51 602.608 466.17 602.473 465.738 602.473C465.443 602.473 465.18 602.537 464.95 602.665C464.723 602.793 464.542 602.98 464.409 603.227C464.278 603.472 464.213 603.767 464.213 604.114ZM472.868 608.132C472.234 608.132 471.689 607.989 471.231 607.702C470.777 607.412 470.427 607.013 470.183 606.504C469.939 605.996 469.816 605.413 469.816 604.757C469.816 604.092 469.941 603.506 470.191 602.997C470.441 602.486 470.794 602.087 471.248 601.8C471.703 601.513 472.238 601.369 472.855 601.369C473.352 601.369 473.795 601.462 474.184 601.646C474.574 601.828 474.887 602.084 475.126 602.413C475.368 602.743 475.511 603.128 475.556 603.568H474.316C474.248 603.261 474.092 602.997 473.848 602.776C473.606 602.554 473.282 602.443 472.876 602.443C472.521 602.443 472.21 602.537 471.943 602.724C471.679 602.909 471.473 603.173 471.325 603.517C471.177 603.858 471.103 604.261 471.103 604.727C471.103 605.205 471.176 605.616 471.321 605.963C471.466 606.31 471.67 606.578 471.934 606.768C472.201 606.959 472.515 607.054 472.876 607.054C473.118 607.054 473.336 607.01 473.532 606.922C473.731 606.831 473.897 606.702 474.031 606.534C474.167 606.366 474.262 606.165 474.316 605.929H475.556C475.511 606.352 475.373 606.73 475.143 607.062C474.913 607.395 474.605 607.656 474.218 607.847C473.835 608.037 473.385 608.132 472.868 608.132ZM479.74 608.132C479.095 608.132 478.54 607.994 478.074 607.719C477.611 607.44 477.253 607.05 477 606.547C476.75 606.041 476.625 605.449 476.625 604.77C476.625 604.099 476.75 603.509 477 602.997C477.253 602.486 477.605 602.087 478.057 601.8C478.511 601.513 479.043 601.369 479.651 601.369C480.02 601.369 480.378 601.43 480.724 601.553C481.071 601.675 481.382 601.866 481.658 602.128C481.933 602.389 482.151 602.729 482.31 603.146C482.469 603.561 482.548 604.065 482.548 604.659V605.111H477.345V604.156H481.3C481.3 603.821 481.232 603.524 481.095 603.266C480.959 603.004 480.767 602.798 480.52 602.648C480.276 602.497 479.989 602.422 479.659 602.422C479.301 602.422 478.989 602.51 478.722 602.686C478.457 602.859 478.253 603.087 478.108 603.368C477.966 603.646 477.895 603.949 477.895 604.276V605.021C477.895 605.459 477.972 605.831 478.125 606.138C478.281 606.445 478.499 606.679 478.777 606.841C479.055 607 479.381 607.08 479.753 607.08C479.994 607.08 480.214 607.045 480.413 606.977C480.612 606.906 480.784 606.801 480.929 606.662C481.074 606.523 481.185 606.351 481.261 606.146L482.467 606.364C482.371 606.719 482.197 607.03 481.947 607.297C481.7 607.561 481.389 607.767 481.014 607.915C480.642 608.06 480.217 608.132 479.74 608.132Z" fill="white" fill-opacity="0.36"/>
<path d="M490.159 608.145C489.486 608.142 488.911 607.964 488.433 607.612C487.956 607.26 487.591 606.747 487.338 606.074C487.085 605.401 486.959 604.589 486.959 603.641C486.959 602.695 487.085 601.886 487.338 601.216C487.594 600.545 487.96 600.034 488.438 599.682C488.918 599.33 489.491 599.153 490.159 599.153C490.827 599.153 491.399 599.331 491.876 599.686C492.354 600.038 492.719 600.55 492.972 601.22C493.227 601.888 493.355 602.695 493.355 603.641C493.355 604.592 493.229 605.405 492.976 606.078C492.723 606.749 492.358 607.261 491.881 607.616C491.403 607.969 490.83 608.145 490.159 608.145ZM490.159 607.007C490.75 607.007 491.212 606.719 491.544 606.142C491.879 605.565 492.047 604.732 492.047 603.641C492.047 602.916 491.97 602.304 491.817 601.804C491.666 601.301 491.449 600.92 491.165 600.662C490.884 600.401 490.548 600.27 490.159 600.27C489.571 600.27 489.109 600.56 488.774 601.139C488.439 601.719 488.27 602.553 488.267 603.641C488.267 604.368 488.342 604.983 488.493 605.486C488.646 605.986 488.864 606.365 489.145 606.624C489.426 606.879 489.764 607.007 490.159 607.007ZM495.407 608.081C495.174 608.081 494.974 607.999 494.806 607.834C494.638 607.666 494.555 607.464 494.555 607.229C494.555 606.996 494.638 606.797 494.806 606.632C494.974 606.464 495.174 606.381 495.407 606.381C495.64 606.381 495.84 606.464 496.008 606.632C496.175 606.797 496.259 606.996 496.259 607.229C496.259 607.385 496.219 607.528 496.14 607.659C496.063 607.787 495.961 607.889 495.833 607.966C495.705 608.043 495.563 608.081 495.407 608.081ZM500.671 608.145C499.998 608.142 499.422 607.964 498.945 607.612C498.468 607.26 498.103 606.747 497.85 606.074C497.597 605.401 497.471 604.589 497.471 603.641C497.471 602.695 497.597 601.886 497.85 601.216C498.105 600.545 498.472 600.034 498.949 599.682C499.429 599.33 500.003 599.153 500.671 599.153C501.338 599.153 501.911 599.331 502.388 599.686C502.865 600.038 503.23 600.55 503.483 601.22C503.739 601.888 503.867 602.695 503.867 603.641C503.867 604.592 503.74 605.405 503.488 606.078C503.235 606.749 502.87 607.261 502.392 607.616C501.915 607.969 501.341 608.145 500.671 608.145ZM500.671 607.007C501.262 607.007 501.723 606.719 502.056 606.142C502.391 605.565 502.559 604.732 502.559 603.641C502.559 602.916 502.482 602.304 502.328 601.804C502.178 601.301 501.961 600.92 501.676 600.662C501.395 600.401 501.06 600.27 500.671 600.27C500.083 600.27 499.621 600.56 499.286 601.139C498.951 601.719 498.782 602.553 498.779 603.641C498.779 604.368 498.854 604.983 499.005 605.486C499.158 605.986 499.375 606.365 499.657 606.624C499.938 606.879 500.276 607.007 500.671 607.007ZM508.674 599.273H510.272L513.05 606.057H513.152L515.931 599.273H517.529V608H516.276V601.685H516.195L513.621 607.987H512.581L510.007 601.68H509.926V608H508.674V599.273ZM520.76 599.273V608H519.443V599.273H520.76ZM525.503 608H522.678V599.273H525.592C526.447 599.273 527.182 599.447 527.795 599.797C528.409 600.143 528.879 600.642 529.206 601.293C529.536 601.94 529.7 602.717 529.7 603.624C529.7 604.533 529.534 605.314 529.202 605.967C528.872 606.621 528.395 607.124 527.77 607.476C527.145 607.825 526.389 608 525.503 608ZM523.994 606.849H525.43C526.095 606.849 526.648 606.724 527.088 606.474C527.528 606.222 527.858 605.857 528.077 605.379C528.295 604.899 528.405 604.314 528.405 603.624C528.405 602.939 528.295 602.358 528.077 601.881C527.861 601.403 527.538 601.041 527.109 600.794C526.68 600.547 526.148 600.423 525.511 600.423H523.994V606.849ZM531.641 608H530.244L533.384 599.273H534.906L538.046 608H536.648L534.181 600.858H534.113L531.641 608ZM531.876 604.582H536.41V605.69H531.876V604.582ZM543.996 601.565C543.951 601.162 543.763 600.849 543.434 600.628C543.104 600.403 542.689 600.291 542.189 600.291C541.831 600.291 541.522 600.348 541.26 600.462C540.999 600.572 540.796 600.726 540.651 600.922C540.509 601.115 540.438 601.335 540.438 601.582C540.438 601.79 540.486 601.969 540.583 602.119C540.682 602.27 540.811 602.396 540.971 602.499C541.132 602.598 541.306 602.682 541.49 602.75C541.675 602.815 541.853 602.869 542.023 602.912L542.875 603.134C543.154 603.202 543.439 603.294 543.732 603.411C544.025 603.527 544.296 603.68 544.546 603.871C544.796 604.061 544.998 604.297 545.151 604.578C545.307 604.859 545.385 605.196 545.385 605.588C545.385 606.082 545.257 606.521 545.002 606.905C544.749 607.288 544.381 607.591 543.898 607.812C543.418 608.034 542.837 608.145 542.155 608.145C541.502 608.145 540.936 608.041 540.459 607.834C539.982 607.626 539.608 607.332 539.338 606.952C539.069 606.568 538.919 606.114 538.891 605.588H540.212C540.238 605.903 540.34 606.166 540.519 606.376C540.701 606.584 540.932 606.739 541.213 606.841C541.498 606.94 541.809 606.99 542.147 606.99C542.519 606.99 542.85 606.932 543.14 606.815C543.432 606.696 543.662 606.531 543.83 606.321C543.998 606.108 544.081 605.859 544.081 605.575C544.081 605.317 544.007 605.105 543.86 604.94C543.715 604.776 543.517 604.639 543.267 604.531C543.02 604.423 542.74 604.328 542.428 604.246L541.397 603.964C540.698 603.774 540.144 603.494 539.735 603.125C539.328 602.756 539.125 602.267 539.125 601.659C539.125 601.156 539.262 600.717 539.534 600.342C539.807 599.967 540.176 599.676 540.642 599.469C541.108 599.259 541.634 599.153 542.219 599.153C542.81 599.153 543.331 599.257 543.783 599.464C544.238 599.672 544.596 599.957 544.857 600.321C545.118 600.682 545.255 601.097 545.266 601.565H543.996Z" fill="white"/>
<path d="M34.7045 597.875V596.364H43.7102V597.875H40.0795V608H38.3295V597.875H34.7045ZM47.7344 608.176C46.9163 608.176 46.2022 607.989 45.5924 607.614C44.9825 607.239 44.5091 606.714 44.1719 606.04C43.8348 605.366 43.6663 604.578 43.6663 603.676C43.6663 602.771 43.8348 601.979 44.1719 601.301C44.5091 600.623 44.9825 600.097 45.5924 599.722C46.2022 599.347 46.9163 599.159 47.7344 599.159C48.5526 599.159 49.2666 599.347 49.8765 599.722C50.4863 600.097 50.9598 600.623 51.2969 601.301C51.6341 601.979 51.8026 602.771 51.8026 603.676C51.8026 604.578 51.6341 605.366 51.2969 606.04C50.9598 606.714 50.4863 607.239 49.8765 607.614C49.2666 607.989 48.5526 608.176 47.7344 608.176ZM47.7401 606.75C48.2704 606.75 48.7098 606.61 49.0583 606.33C49.4068 606.049 49.6644 605.676 49.831 605.21C50.0015 604.744 50.0867 604.231 50.0867 603.67C50.0867 603.114 50.0015 602.602 49.831 602.136C49.6644 601.667 49.4068 601.29 49.0583 601.006C48.7098 600.722 48.2704 600.58 47.7401 600.58C47.206 600.58 46.7628 600.722 46.4106 601.006C46.0621 601.29 45.8026 601.667 45.6322 602.136C45.4655 602.602 45.3822 603.114 45.3822 603.67C45.3822 604.231 45.4655 604.744 45.6322 605.21C45.8026 605.676 46.0621 606.049 46.4106 606.33C46.7628 606.61 47.206 606.75 47.7401 606.75ZM57.9476 603.17C57.9476 601.746 58.1351 600.436 58.5101 599.239C58.8851 598.042 59.4325 596.937 60.1522 595.926H61.709C61.4287 596.301 61.1673 596.761 60.9249 597.307C60.6825 597.852 60.4703 598.451 60.2885 599.102C60.1067 599.75 59.9647 600.422 59.8624 601.119C59.7601 601.812 59.709 602.496 59.709 603.17C59.709 604.072 59.798 604.985 59.976 605.909C60.1541 606.833 60.3946 607.691 60.6976 608.483C61.0006 609.275 61.3378 609.92 61.709 610.42H60.1522C59.4325 609.409 58.8851 608.305 58.5101 607.108C58.1351 605.911 57.9476 604.598 57.9476 603.17ZM66.8653 608.176C66.0054 608.176 65.2649 607.992 64.6437 607.625C64.0263 607.254 63.549 606.733 63.2119 606.062C62.8785 605.388 62.7119 604.598 62.7119 603.693C62.7119 602.799 62.8785 602.011 63.2119 601.33C63.549 600.648 64.0187 600.116 64.621 599.733C65.227 599.35 65.9354 599.159 66.746 599.159C67.2384 599.159 67.7157 599.241 68.1778 599.403C68.6399 599.566 69.0547 599.822 69.4221 600.17C69.7895 600.519 70.0793 600.972 70.2914 601.528C70.5035 602.081 70.6096 602.754 70.6096 603.545V604.148H63.6721V602.875H68.9448C68.9448 602.428 68.8539 602.032 68.6721 601.688C68.4903 601.339 68.2346 601.064 67.9051 600.864C67.5793 600.663 67.1967 600.562 66.7573 600.562C66.2801 600.562 65.8634 600.68 65.5073 600.915C65.1551 601.146 64.8823 601.449 64.6891 601.824C64.4998 602.195 64.4051 602.598 64.4051 603.034V604.028C64.4051 604.612 64.5073 605.108 64.7119 605.517C64.9202 605.926 65.21 606.239 65.5812 606.455C65.9524 606.667 66.3861 606.773 66.8823 606.773C67.2043 606.773 67.4979 606.727 67.763 606.636C68.0282 606.542 68.2573 606.402 68.4505 606.216C68.6437 606.03 68.7914 605.801 68.8937 605.528L70.5016 605.818C70.3729 606.292 70.1418 606.706 69.8085 607.062C69.4789 607.415 69.0641 607.689 68.5641 607.886C68.0679 608.08 67.5016 608.176 66.8653 608.176ZM78.7943 601.403L77.2545 601.676C77.1902 601.479 77.0879 601.292 76.9477 601.114C76.8114 600.936 76.6258 600.79 76.3909 600.676C76.1561 600.562 75.8625 600.506 75.5102 600.506C75.0292 600.506 74.6277 600.614 74.3057 600.83C73.9837 601.042 73.8227 601.316 73.8227 601.653C73.8227 601.945 73.9307 602.18 74.1466 602.358C74.3625 602.536 74.711 602.682 75.192 602.795L76.5784 603.114C77.3814 603.299 77.9799 603.585 78.3739 603.972C78.7678 604.358 78.9648 604.86 78.9648 605.477C78.9648 606 78.8133 606.466 78.5102 606.875C78.211 607.28 77.7924 607.598 77.2545 607.83C76.7205 608.061 76.1011 608.176 75.3966 608.176C74.4193 608.176 73.622 607.968 73.0045 607.551C72.3871 607.131 72.0083 606.534 71.8682 605.761L73.5102 605.511C73.6125 605.939 73.8227 606.263 74.1409 606.483C74.4591 606.699 74.8739 606.807 75.3852 606.807C75.942 606.807 76.3871 606.691 76.7205 606.46C77.0538 606.225 77.2205 605.939 77.2205 605.602C77.2205 605.33 77.1182 605.1 76.9136 604.915C76.7129 604.729 76.4042 604.589 75.9875 604.494L74.5102 604.17C73.6958 603.985 73.0936 603.689 72.7034 603.284C72.317 602.879 72.1239 602.366 72.1239 601.744C72.1239 601.229 72.2678 600.778 72.5557 600.392C72.8436 600.006 73.2413 599.705 73.7489 599.489C74.2564 599.269 74.8379 599.159 75.4932 599.159C76.4364 599.159 77.1788 599.364 77.7205 599.773C78.2621 600.178 78.6201 600.722 78.7943 601.403ZM84.6665 599.273V600.636H79.8995V599.273H84.6665ZM81.1779 597.182H82.8768V605.438C82.8768 605.767 82.926 606.015 83.0245 606.182C83.123 606.345 83.2499 606.456 83.4052 606.517C83.5643 606.574 83.7366 606.602 83.9222 606.602C84.0586 606.602 84.1779 606.593 84.2802 606.574C84.3824 606.555 84.462 606.54 84.5188 606.528L84.8256 607.932C84.7271 607.97 84.587 608.008 84.4052 608.045C84.2234 608.087 83.9961 608.11 83.7234 608.114C83.2764 608.121 82.8597 608.042 82.4734 607.875C82.087 607.708 81.7745 607.451 81.5359 607.102C81.2972 606.754 81.1779 606.316 81.1779 605.79V597.182ZM86.3058 608V599.273H88.0047V608H86.3058ZM87.1637 597.926C86.8683 597.926 86.6145 597.828 86.4024 597.631C86.1941 597.43 86.0899 597.191 86.0899 596.915C86.0899 596.634 86.1941 596.396 86.4024 596.199C86.6145 595.998 86.8683 595.898 87.1637 595.898C87.4592 595.898 87.7111 595.998 87.9194 596.199C88.1316 596.396 88.2376 596.634 88.2376 596.915C88.2376 597.191 88.1316 597.43 87.9194 597.631C87.7111 597.828 87.4592 597.926 87.1637 597.926ZM90.0502 608V599.273H91.6809V600.693H91.7888C91.9706 600.212 92.268 599.837 92.6809 599.568C93.0937 599.295 93.5881 599.159 94.1638 599.159C94.7471 599.159 95.2358 599.295 95.6297 599.568C96.0274 599.841 96.321 600.216 96.5104 600.693H96.6013C96.8096 600.227 97.1411 599.856 97.5956 599.58C98.0502 599.299 98.5918 599.159 99.2206 599.159C100.012 599.159 100.658 599.407 101.158 599.903C101.662 600.4 101.914 601.148 101.914 602.148V608H100.215V602.307C100.215 601.716 100.054 601.288 99.732 601.023C99.41 600.758 99.0256 600.625 98.5786 600.625C98.0256 600.625 97.5956 600.795 97.2888 601.136C96.982 601.473 96.8286 601.907 96.8286 602.438V608H95.1354V602.199C95.1354 601.725 94.9877 601.345 94.6922 601.057C94.3968 600.769 94.0123 600.625 93.5388 600.625C93.2168 600.625 92.9195 600.71 92.6468 600.881C92.3778 601.047 92.16 601.28 91.9934 601.58C91.8305 601.879 91.749 602.225 91.749 602.619V608H90.0502ZM106.491 608.193C105.938 608.193 105.438 608.091 104.991 607.886C104.544 607.678 104.189 607.377 103.928 606.983C103.67 606.589 103.542 606.106 103.542 605.534C103.542 605.042 103.636 604.636 103.826 604.318C104.015 604 104.271 603.748 104.593 603.562C104.915 603.377 105.275 603.237 105.672 603.142C106.07 603.047 106.475 602.975 106.888 602.926C107.411 602.866 107.835 602.816 108.161 602.778C108.487 602.737 108.724 602.67 108.871 602.58C109.019 602.489 109.093 602.341 109.093 602.136V602.097C109.093 601.6 108.953 601.216 108.672 600.943C108.396 600.67 107.983 600.534 107.434 600.534C106.862 600.534 106.411 600.661 106.081 600.915C105.756 601.165 105.53 601.443 105.405 601.75L103.809 601.386C103.998 600.856 104.275 600.428 104.638 600.102C105.006 599.773 105.428 599.534 105.905 599.386C106.383 599.235 106.885 599.159 107.411 599.159C107.76 599.159 108.129 599.201 108.519 599.284C108.913 599.364 109.28 599.511 109.621 599.727C109.966 599.943 110.248 600.252 110.468 600.653C110.688 601.051 110.797 601.568 110.797 602.205V608H109.138V606.807H109.07C108.96 607.027 108.795 607.242 108.576 607.455C108.356 607.667 108.074 607.843 107.729 607.983C107.385 608.123 106.972 608.193 106.491 608.193ZM106.86 606.83C107.33 606.83 107.731 606.737 108.064 606.551C108.402 606.366 108.657 606.123 108.831 605.824C109.01 605.521 109.099 605.197 109.099 604.852V603.727C109.038 603.788 108.92 603.845 108.746 603.898C108.576 603.947 108.381 603.991 108.161 604.028C107.941 604.062 107.727 604.095 107.519 604.125C107.311 604.152 107.136 604.174 106.996 604.193C106.667 604.235 106.366 604.305 106.093 604.403C105.824 604.502 105.608 604.644 105.445 604.83C105.286 605.011 105.206 605.254 105.206 605.557C105.206 605.977 105.362 606.295 105.672 606.511C105.983 606.723 106.379 606.83 106.86 606.83ZM116.894 599.273V600.636H112.127V599.273H116.894ZM113.405 597.182H115.104V605.438C115.104 605.767 115.154 606.015 115.252 606.182C115.35 606.345 115.477 606.456 115.633 606.517C115.792 606.574 115.964 606.602 116.15 606.602C116.286 606.602 116.405 606.593 116.508 606.574C116.61 606.555 116.689 606.54 116.746 606.528L117.053 607.932C116.955 607.97 116.814 608.008 116.633 608.045C116.451 608.087 116.224 608.11 115.951 608.114C115.504 608.121 115.087 608.042 114.701 607.875C114.314 607.708 114.002 607.451 113.763 607.102C113.525 606.754 113.405 606.316 113.405 605.79V597.182ZM122.201 608.176C121.341 608.176 120.601 607.992 119.979 607.625C119.362 607.254 118.885 606.733 118.548 606.062C118.214 605.388 118.048 604.598 118.048 603.693C118.048 602.799 118.214 602.011 118.548 601.33C118.885 600.648 119.354 600.116 119.957 599.733C120.563 599.35 121.271 599.159 122.082 599.159C122.574 599.159 123.051 599.241 123.513 599.403C123.976 599.566 124.39 599.822 124.758 600.17C125.125 600.519 125.415 600.972 125.627 601.528C125.839 602.081 125.945 602.754 125.945 603.545V604.148H119.008V602.875H124.28C124.28 602.428 124.19 602.032 124.008 601.688C123.826 601.339 123.57 601.064 123.241 600.864C122.915 600.663 122.532 600.562 122.093 600.562C121.616 600.562 121.199 600.68 120.843 600.915C120.491 601.146 120.218 601.449 120.025 601.824C119.835 602.195 119.741 602.598 119.741 603.034V604.028C119.741 604.612 119.843 605.108 120.048 605.517C120.256 605.926 120.546 606.239 120.917 606.455C121.288 606.667 121.722 606.773 122.218 606.773C122.54 606.773 122.833 606.727 123.099 606.636C123.364 606.542 123.593 606.402 123.786 606.216C123.979 606.03 124.127 605.801 124.229 605.528L125.837 605.818C125.708 606.292 125.477 606.706 125.144 607.062C124.815 607.415 124.4 607.689 123.9 607.886C123.404 608.08 122.837 608.176 122.201 608.176ZM130.857 608.17C130.153 608.17 129.524 607.991 128.971 607.631C128.422 607.267 127.99 606.75 127.675 606.08C127.365 605.405 127.209 604.597 127.209 603.653C127.209 602.71 127.367 601.903 127.681 601.233C127.999 600.562 128.435 600.049 128.988 599.693C129.541 599.337 130.168 599.159 130.869 599.159C131.41 599.159 131.846 599.25 132.175 599.432C132.509 599.61 132.766 599.818 132.948 600.057C133.134 600.295 133.278 600.506 133.38 600.688H133.482V596.364H135.181V608H133.522V606.642H133.38C133.278 606.828 133.13 607.04 132.937 607.278C132.747 607.517 132.486 607.725 132.153 607.903C131.819 608.081 131.388 608.17 130.857 608.17ZM131.232 606.722C131.721 606.722 132.134 606.593 132.471 606.335C132.812 606.074 133.069 605.712 133.244 605.25C133.422 604.788 133.511 604.25 133.511 603.636C133.511 603.03 133.424 602.5 133.249 602.045C133.075 601.591 132.819 601.237 132.482 600.983C132.145 600.729 131.728 600.602 131.232 600.602C130.721 600.602 130.295 600.735 129.954 601C129.613 601.265 129.355 601.627 129.181 602.085C129.011 602.544 128.925 603.061 128.925 603.636C128.925 604.22 129.013 604.744 129.187 605.21C129.361 605.676 129.619 606.045 129.959 606.318C130.304 606.587 130.728 606.722 131.232 606.722ZM140.633 603.17C140.633 604.598 140.445 605.911 140.07 607.108C139.695 608.305 139.148 609.409 138.428 610.42H136.871C137.152 610.045 137.413 609.585 137.656 609.04C137.898 608.494 138.11 607.898 138.292 607.25C138.474 606.598 138.616 605.924 138.718 605.227C138.82 604.53 138.871 603.845 138.871 603.17C138.871 602.273 138.782 601.362 138.604 600.438C138.426 599.513 138.186 598.655 137.883 597.864C137.58 597.072 137.243 596.426 136.871 595.926H138.428C139.148 596.937 139.695 598.042 140.07 599.239C140.445 600.436 140.633 601.746 140.633 603.17Z" fill="white" fill-opacity="0.36"/>
<g filter="url(#filter4_d_427_986)">
<rect x="26" y="622" width="528" height="94" rx="20" fill="white" fill-opacity="0.04" shape-rendering="crispEdges"/>
<path d="M57.6847 645.636V666H54.6023V648.719H54.483L49.6108 651.901V648.957L54.6918 645.636H57.6847ZM69.7227 666.338C68.1516 666.331 66.8093 665.917 65.6957 665.095C64.582 664.273 63.7302 663.077 63.1403 661.506C62.5503 659.935 62.2553 658.042 62.2553 655.828C62.2553 653.621 62.5503 651.735 63.1403 650.17C63.7369 648.606 64.592 647.413 65.7056 646.591C66.8259 645.769 68.1649 645.358 69.7227 645.358C71.2804 645.358 72.6161 645.772 73.7298 646.601C74.8434 647.423 75.6952 648.616 76.2852 650.18C76.8818 651.738 77.1801 653.621 77.1801 655.828C77.1801 658.049 76.8851 659.945 76.2951 661.516C75.7052 663.08 74.8534 664.277 73.7397 665.105C72.6261 665.927 71.2871 666.338 69.7227 666.338ZM69.7227 663.683C71.1015 663.683 72.1786 663.01 72.9542 661.665C73.7364 660.319 74.1275 658.374 74.1275 655.828C74.1275 654.138 73.9485 652.709 73.5906 651.543C73.2392 650.369 72.7321 649.481 72.0693 648.878C71.413 648.268 70.6308 647.963 69.7227 647.963C68.3505 647.963 67.2733 648.639 66.4911 649.991C65.7089 651.344 65.3145 653.289 65.3079 655.828C65.3079 657.525 65.4836 658.96 65.8349 660.134C66.1928 661.3 66.6999 662.185 67.3562 662.788C68.0124 663.385 68.8013 663.683 69.7227 663.683ZM81.4077 666.189C80.8641 666.189 80.3968 665.997 80.0057 665.612C79.6146 665.221 79.4191 664.75 79.4191 664.2C79.4191 663.657 79.6146 663.193 80.0057 662.808C80.3968 662.417 80.8641 662.222 81.4077 662.222C81.9513 662.222 82.4186 662.417 82.8097 662.808C83.2008 663.193 83.3963 663.657 83.3963 664.2C83.3963 664.565 83.3035 664.9 83.1179 665.205C82.9389 665.503 82.7003 665.741 82.402 665.92C82.1037 666.099 81.7723 666.189 81.4077 666.189ZM86.3512 662.023V659.537L95.151 645.636H97.1098V649.295H95.8669L89.5728 659.259V659.418H101.634V662.023H86.3512ZM96.0061 666V661.267L96.026 660.134V645.636H98.9393V666H96.0061ZM111.629 666.338C110.058 666.331 108.715 665.917 107.602 665.095C106.488 664.273 105.636 663.077 105.046 661.506C104.456 659.935 104.161 658.042 104.161 655.828C104.161 653.621 104.456 651.735 105.046 650.17C105.643 648.606 106.498 647.413 107.612 646.591C108.732 645.769 110.071 645.358 111.629 645.358C113.186 645.358 114.522 645.772 115.636 646.601C116.749 647.423 117.601 648.616 118.191 650.18C118.788 651.738 119.086 653.621 119.086 655.828C119.086 658.049 118.791 659.945 118.201 661.516C117.611 663.08 116.759 664.277 115.646 665.105C114.532 665.927 113.193 666.338 111.629 666.338ZM111.629 663.683C113.007 663.683 114.085 663.01 114.86 661.665C115.642 660.319 116.033 658.374 116.033 655.828C116.033 654.138 115.854 652.709 115.497 651.543C115.145 650.369 114.638 649.481 113.975 648.878C113.319 648.268 112.537 647.963 111.629 647.963C110.256 647.963 109.179 648.639 108.397 649.991C107.615 651.344 107.22 653.289 107.214 655.828C107.214 657.525 107.389 658.96 107.741 660.134C108.099 661.3 108.606 662.185 109.262 662.788C109.918 663.385 110.707 663.683 111.629 663.683ZM129.779 645.636V666H126.697V648.719H126.577L121.705 651.901V648.957L126.786 645.636H129.779ZM141.499 645.358C142.407 645.365 143.302 645.53 144.184 645.855C145.065 646.18 145.861 646.71 146.57 647.446C147.286 648.182 147.856 649.176 148.28 650.429C148.711 651.675 148.93 653.226 148.937 655.082C148.937 656.866 148.758 658.453 148.4 659.845C148.042 661.231 147.528 662.401 146.858 663.355C146.196 664.31 145.39 665.036 144.442 665.533C143.494 666.03 142.427 666.278 141.24 666.278C140.027 666.278 138.95 666.04 138.009 665.562C137.068 665.085 136.302 664.426 135.712 663.584C135.122 662.735 134.754 661.761 134.608 660.661H137.641C137.84 661.536 138.244 662.245 138.854 662.788C139.471 663.325 140.266 663.594 141.24 663.594C142.732 663.594 143.895 662.944 144.731 661.645C145.566 660.339 145.987 658.516 145.993 656.176H145.834C145.49 656.746 145.059 657.237 144.542 657.648C144.031 658.059 143.458 658.377 142.821 658.602C142.185 658.828 141.506 658.94 140.783 658.94C139.61 658.94 138.543 658.652 137.581 658.075C136.62 657.499 135.855 656.706 135.285 655.699C134.714 654.691 134.429 653.541 134.429 652.249C134.429 650.963 134.721 649.796 135.304 648.749C135.894 647.701 136.716 646.873 137.77 646.263C138.831 645.646 140.074 645.345 141.499 645.358ZM141.509 647.943C140.733 647.943 140.034 648.135 139.411 648.52C138.794 648.898 138.307 649.411 137.949 650.061C137.591 650.704 137.412 651.42 137.412 652.209C137.412 652.998 137.585 653.714 137.929 654.357C138.281 654.993 138.758 655.5 139.361 655.878C139.971 656.249 140.667 656.435 141.449 656.435C142.033 656.435 142.576 656.322 143.08 656.097C143.584 655.871 144.025 655.56 144.402 655.162C144.78 654.758 145.075 654.3 145.287 653.79C145.499 653.279 145.606 652.742 145.606 652.179C145.606 651.43 145.427 650.734 145.069 650.091C144.717 649.448 144.233 648.931 143.617 648.54C143 648.142 142.298 647.943 141.509 647.943ZM151.541 662.023V659.537L160.341 645.636H162.299V649.295H161.057L154.763 659.259V659.418H166.824V662.023H151.541ZM161.196 666V661.267L161.216 660.134V645.636H164.129V666H161.196ZM169.301 662.023V659.537L178.101 645.636H180.06V649.295H178.817L172.523 659.259V659.418H184.584V662.023H169.301ZM178.956 666V661.267L178.976 660.134V645.636H181.889V666H178.956Z" fill="white"/>
<g filter="url(#filter5_d_427_986)">
<rect x="416" y="630" width="130" height="52" rx="18" fill="#14151A"/>
<g filter="url(#filter6_d_427_986)">
<path d="M430 656C430 649.373 435.373 644 442 644C448.627 644 454 649.373 454 656C454 662.627 448.627 668 442 668C435.373 668 430 662.627 430 656Z" fill="white" fill-opacity="0.08" shape-rendering="crispEdges"/>
<path fill-rule="evenodd" clip-rule="evenodd" d="M446.875 652.5L435.5 659.5H448.5L446.875 652.5ZM437.125 652.5L440.915 655.363L435.5 659.5L437.125 652.5Z" fill="white"/>
</g>
<path d="M463.148 650.364H465.727L469.182 658.795H469.318L472.773 650.364H475.352V662H473.33V654.006H473.222L470.006 661.966H468.494L465.278 653.989H465.17V662H463.148V650.364ZM479.516 650.364V662H477.408V650.364H479.516ZM485.502 662H481.558V650.364H485.581C486.736 650.364 487.729 650.597 488.558 651.062C489.392 651.525 490.032 652.189 490.479 653.057C490.926 653.924 491.149 654.962 491.149 656.17C491.149 657.383 490.924 658.424 490.473 659.295C490.026 660.167 489.38 660.835 488.536 661.301C487.695 661.767 486.683 662 485.502 662ZM483.666 660.176H485.399C486.21 660.176 486.886 660.028 487.428 659.733C487.969 659.434 488.377 658.989 488.649 658.398C488.922 657.803 489.058 657.061 489.058 656.17C489.058 655.28 488.922 654.542 488.649 653.955C488.377 653.364 487.973 652.922 487.439 652.631C486.909 652.335 486.25 652.188 485.462 652.188H483.666V660.176ZM493.781 662H491.531L495.628 650.364H498.23L502.333 662H500.083L496.975 652.75H496.884L493.781 662ZM493.855 657.438H499.992V659.131H493.855V657.438ZM509.762 653.562C509.709 653.066 509.485 652.68 509.091 652.403C508.701 652.127 508.193 651.989 507.568 651.989C507.129 651.989 506.752 652.055 506.438 652.188C506.123 652.32 505.883 652.5 505.716 652.727C505.549 652.955 505.464 653.214 505.46 653.506C505.46 653.748 505.515 653.958 505.625 654.136C505.739 654.314 505.892 654.466 506.085 654.591C506.279 654.712 506.493 654.814 506.728 654.898C506.962 654.981 507.199 655.051 507.438 655.108L508.529 655.381C508.968 655.483 509.39 655.621 509.796 655.795C510.205 655.97 510.57 656.189 510.892 656.455C511.218 656.72 511.476 657.04 511.665 657.415C511.854 657.79 511.949 658.229 511.949 658.733C511.949 659.415 511.775 660.015 511.426 660.534C511.078 661.049 510.574 661.453 509.915 661.744C509.26 662.032 508.466 662.176 507.534 662.176C506.629 662.176 505.843 662.036 505.176 661.756C504.513 661.475 503.995 661.066 503.62 660.528C503.248 659.991 503.048 659.335 503.017 658.562H505.091C505.121 658.968 505.246 659.305 505.466 659.574C505.686 659.843 505.972 660.044 506.324 660.176C506.68 660.309 507.078 660.375 507.517 660.375C507.976 660.375 508.377 660.307 508.722 660.17C509.07 660.03 509.343 659.837 509.54 659.591C509.737 659.341 509.837 659.049 509.841 658.716C509.837 658.413 509.748 658.163 509.574 657.966C509.4 657.765 509.156 657.598 508.841 657.466C508.531 657.33 508.167 657.208 507.75 657.102L506.426 656.761C505.468 656.515 504.71 656.142 504.154 655.642C503.601 655.138 503.324 654.47 503.324 653.636C503.324 652.951 503.51 652.35 503.881 651.835C504.256 651.32 504.765 650.92 505.409 650.636C506.053 650.348 506.782 650.205 507.597 650.205C508.423 650.205 509.146 650.348 509.767 650.636C510.392 650.92 510.883 651.316 511.239 651.824C511.595 652.328 511.779 652.907 511.79 653.562H509.762Z" fill="white"/>
<path d="M527.707 655.118C527.664 655.669 527.012 656.321 525.708 657.625L525.708 657.625C525.107 658.226 524.806 658.527 524.463 658.639C524.162 658.736 523.838 658.736 523.536 658.639C523.194 658.527 522.893 658.226 522.291 657.625C520.988 656.321 520.336 655.669 520.292 655.118C520.255 654.639 520.449 654.171 520.814 653.859C521.234 653.5 522.156 653.5 524 653.5C525.843 653.5 526.765 653.5 527.186 653.859C527.551 654.171 527.745 654.639 527.707 655.118Z" fill="white" fill-opacity="0.24"/>
</g>
<path d="M49.1236 688.457C49.1203 687.88 49.2098 687.414 49.392 687.06C49.5777 686.702 49.8246 686.44 50.1328 686.274C50.4444 686.108 50.7841 686.026 51.152 686.026C51.4901 686.026 51.795 686.097 52.0668 686.239C52.3419 686.379 52.6567 686.596 53.0114 686.891C53.25 687.089 53.4422 687.23 53.5881 687.313C53.7339 687.396 53.893 687.438 54.0653 687.438C54.3404 687.438 54.5559 687.338 54.7116 687.139C54.8707 686.94 54.947 686.649 54.9403 686.264H56.1982C56.2081 686.834 56.1186 687.3 55.9297 687.661C55.7441 688.019 55.4938 688.284 55.179 688.457C54.8674 688.626 54.526 688.71 54.1548 688.71C53.8267 688.71 53.5234 688.642 53.245 688.506C52.9666 688.371 52.6468 688.147 52.2855 687.835C52.0535 687.636 51.8679 687.497 51.7287 687.418C51.5895 687.338 51.4337 687.298 51.2614 687.298C50.9995 687.298 50.7857 687.389 50.62 687.572C50.4543 687.751 50.3748 688.046 50.3814 688.457H49.1236ZM49.1236 691.539C49.1203 690.962 49.2098 690.497 49.392 690.142C49.5777 689.784 49.8246 689.522 50.1328 689.357C50.4444 689.191 50.7841 689.108 51.152 689.108C51.4901 689.108 51.795 689.179 52.0668 689.322C52.3419 689.461 52.6567 689.678 53.0114 689.973C53.25 690.172 53.4422 690.313 53.5881 690.396C53.7339 690.478 53.893 690.52 54.0653 690.52C54.3404 690.52 54.5559 690.42 54.7116 690.222C54.8707 690.023 54.947 689.731 54.9403 689.347H56.1982C56.2081 689.917 56.1186 690.382 55.9297 690.744C55.7441 691.102 55.4938 691.367 55.179 691.539C54.8674 691.708 54.526 691.793 54.1548 691.793C53.8267 691.793 53.5234 691.725 53.245 691.589C52.9666 691.453 52.6468 691.229 52.2855 690.918C52.0535 690.719 51.8679 690.58 51.7287 690.5C51.5895 690.42 51.4337 690.381 51.2614 690.381C50.9995 690.381 50.7857 690.472 50.62 690.654C50.4543 690.833 50.3748 691.128 50.3814 691.539H49.1236ZM64.8707 695.273V682.545H65.6861V695.273H64.8707ZM67.4212 686.493C67.3681 686.022 67.1494 685.658 66.7649 685.399C66.3805 685.137 65.8966 685.006 65.3132 685.006C64.8956 685.006 64.5343 685.073 64.2294 685.205C63.9245 685.335 63.6875 685.513 63.5185 685.742C63.3528 685.968 63.2699 686.224 63.2699 686.513C63.2699 686.755 63.3262 686.964 63.4389 687.139C63.5549 687.315 63.7057 687.462 63.8913 687.582C64.0803 687.698 64.2824 687.795 64.4979 687.875C64.7133 687.951 64.9205 688.014 65.1193 688.064L66.1136 688.322C66.4385 688.402 66.7716 688.51 67.1129 688.646C67.4543 688.781 67.7708 688.96 68.0625 689.183C68.3542 689.405 68.5895 689.68 68.7685 690.008C68.9508 690.336 69.0419 690.729 69.0419 691.186C69.0419 691.763 68.8928 692.275 68.5945 692.722C68.2995 693.17 67.8703 693.523 67.3068 693.781C66.7467 694.04 66.0689 694.169 65.2734 694.169C64.5111 694.169 63.8516 694.048 63.2948 693.806C62.7379 693.564 62.3021 693.221 61.9872 692.777C61.6724 692.33 61.4984 691.799 61.4652 691.186H63.0064C63.0362 691.554 63.1555 691.861 63.3644 692.106C63.5765 692.348 63.8466 692.528 64.1747 692.648C64.5062 692.764 64.8691 692.822 65.2635 692.822C65.6977 692.822 66.0838 692.754 66.4219 692.618C66.7633 692.479 67.0317 692.286 67.2273 692.041C67.4228 691.793 67.5206 691.503 67.5206 691.171C67.5206 690.87 67.4344 690.623 67.2621 690.43C67.093 690.238 66.8627 690.079 66.571 689.953C66.2827 689.827 65.9562 689.716 65.5916 689.62L64.3885 689.292C63.5732 689.07 62.9269 688.743 62.4496 688.312C61.9756 687.882 61.7386 687.312 61.7386 686.602C61.7386 686.016 61.8977 685.504 62.2159 685.066C62.5341 684.629 62.965 684.289 63.5085 684.047C64.0521 683.802 64.6653 683.679 65.348 683.679C66.0374 683.679 66.6456 683.8 67.1726 684.042C67.7029 684.284 68.1205 684.617 68.4254 685.041C68.7304 685.462 68.8894 685.946 68.9027 686.493H67.4212ZM70.5985 694V692.886L74.0438 689.317C74.4117 688.929 74.7149 688.589 74.9536 688.298C75.1955 688.003 75.3762 687.723 75.4955 687.457C75.6148 687.192 75.6745 686.911 75.6745 686.612C75.6745 686.274 75.5949 685.982 75.4358 685.737C75.2767 685.489 75.0596 685.298 74.7845 685.165C74.5095 685.03 74.1996 684.962 73.8549 684.962C73.4903 684.962 73.1721 685.036 72.9003 685.185C72.6285 685.335 72.4197 685.545 72.2739 685.817C72.1281 686.089 72.0551 686.407 72.0551 686.771H70.5885C70.5885 686.152 70.731 685.61 71.0161 685.146C71.3011 684.682 71.6922 684.322 72.1894 684.067C72.6865 683.808 73.2516 683.679 73.8847 683.679C74.5244 683.679 75.0878 683.807 75.575 684.062C76.0656 684.314 76.4484 684.658 76.7235 685.096C76.9986 685.53 77.1361 686.021 77.1361 686.567C77.1361 686.945 77.0648 687.315 76.9223 687.676C76.7831 688.037 76.5395 688.44 76.1915 688.884C75.8435 689.325 75.3596 689.86 74.7398 690.49L72.7164 692.608V692.683H77.3002V694H70.5985ZM82.4052 694.139C81.7821 694.139 81.222 694.02 80.7248 693.781C80.231 693.539 79.8365 693.208 79.5416 692.787C79.2466 692.366 79.0891 691.885 79.0693 691.345H80.5607C80.5972 691.783 80.7911 692.142 81.1424 692.424C81.4937 692.706 81.9147 692.847 82.4052 692.847C82.7963 692.847 83.1427 692.757 83.4443 692.578C83.7492 692.396 83.9878 692.146 84.1602 691.827C84.3358 691.509 84.4237 691.146 84.4237 690.739C84.4237 690.324 84.3342 689.955 84.1552 689.63C83.9762 689.305 83.7293 689.05 83.4144 688.864C83.1029 688.679 82.7449 688.584 82.3406 688.581C82.0323 688.581 81.7224 688.634 81.4109 688.74C81.0993 688.846 80.8474 688.985 80.6552 689.158L79.2482 688.949L79.82 683.818H85.418V685.136H81.0977L80.7745 687.984H80.8342C81.033 687.792 81.2965 687.631 81.6247 687.502C81.9561 687.373 82.3107 687.308 82.6886 687.308C83.3084 687.308 83.8602 687.456 84.3441 687.751C84.8313 688.046 85.2141 688.448 85.4926 688.959C85.7743 689.466 85.9135 690.049 85.9102 690.709C85.9135 691.368 85.7643 691.957 85.4627 692.474C85.1644 692.991 84.7501 693.398 84.2198 693.697C83.6928 693.992 83.088 694.139 82.4052 694.139ZM87.3723 692.011V690.768L91.7721 683.818H92.7515V685.648H92.1301L88.9831 690.629V690.709H95.0136V692.011H87.3723ZM92.1997 694V691.634L92.2096 691.067V683.818H93.6663V694H92.1997ZM98.1772 692.608L98.1026 693.15C98.0529 693.548 97.9684 693.962 97.8491 694.393C97.7331 694.827 97.6121 695.23 97.4862 695.601C97.3635 695.972 97.2625 696.267 97.1829 696.486H96.1289C96.172 696.28 96.2317 696.002 96.3079 695.651C96.3841 695.303 96.4587 694.913 96.5316 694.482C96.6045 694.051 96.6592 693.612 96.6957 693.165L96.7454 692.608H98.1772ZM100.117 694V692.886L103.562 689.317C103.93 688.929 104.233 688.589 104.472 688.298C104.714 688.003 104.894 687.723 105.014 687.457C105.133 687.192 105.193 686.911 105.193 686.612C105.193 686.274 105.113 685.982 104.954 685.737C104.795 685.489 104.578 685.298 104.303 685.165C104.028 685.03 103.718 684.962 103.373 684.962C103.008 684.962 102.69 685.036 102.418 685.185C102.147 685.335 101.938 685.545 101.792 685.817C101.646 686.089 101.573 686.407 101.573 686.771H100.107C100.107 686.152 100.249 685.61 100.534 685.146C100.819 684.682 101.21 684.322 101.708 684.067C102.205 683.808 102.77 683.679 103.403 683.679C104.042 683.679 104.606 683.807 105.093 684.062C105.584 684.314 105.966 684.658 106.242 685.096C106.517 685.53 106.654 686.021 106.654 686.567C106.654 686.945 106.583 687.315 106.44 687.676C106.301 688.037 106.058 688.44 105.71 688.884C105.362 689.325 104.878 689.86 104.258 690.49L102.234 692.608V692.683H106.818V694H100.117ZM112.425 683.818V694H110.884V685.359H110.825L108.389 686.95V685.479L110.929 683.818H112.425Z" fill="white" fill-opacity="0.36"/>
<rect x="26.5" y="622.5" width="527" height="93" rx="19.5" stroke="white" stroke-opacity="0.05" shape-rendering="crispEdges"/>
</g>
<g filter="url(#filter7_b_427_986)">
<rect x="276" y="582" width="28" height="28" rx="14" fill="white" fill-opacity="0.24"/>
<path opacity="0.4" fill-rule="evenodd" clip-rule="evenodd" d="M289.364 598.97C289.071 598.677 288.596 598.677 288.303 598.97L287.25 600.023L287.25 593.667C287.25 593.253 286.914 592.917 286.5 592.917C286.086 592.917 285.75 593.253 285.75 593.667L285.75 600.023L284.697 598.97C284.404 598.677 283.929 598.677 283.636 598.97C283.344 599.263 283.344 599.738 283.636 600.03L285.97 602.364C286.263 602.657 286.738 602.657 287.03 602.364L289.364 600.03C289.657 599.738 289.657 599.263 289.364 598.97Z" fill="white"/>
<path fill-rule="evenodd" clip-rule="evenodd" d="M296.364 593.03C296.071 593.323 295.596 593.323 295.303 593.03L294.25 591.977L294.25 598.333C294.25 598.748 293.914 599.083 293.5 599.083C293.086 599.083 292.75 598.748 292.75 598.333L292.75 591.977L291.697 593.03C291.404 593.323 290.929 593.323 290.636 593.03C290.344 592.738 290.344 592.263 290.636 591.97L292.97 589.636C293.11 589.496 293.301 589.417 293.5 589.417C293.699 589.417 293.89 589.496 294.03 589.636L296.364 591.97C296.657 592.263 296.657 592.738 296.364 593.03Z" fill="white"/>
</g>
</g>
<rect x="10.5" y="378.5" width="559" height="489" rx="23.5" stroke="white" stroke-opacity="0.04"/>
</g>
</g>
<defs>
<filter id="filter0_b_427_986" x="-110" y="258" width="800" height="730" filterUnits="userSpaceOnUse" color-interpolation-filters="sRGB">
<feFlood flood-opacity="0" result="BackgroundImageFix"/>
<feGaussianBlur in="BackgroundImage" stdDeviation="60"/>
<feComposite in2="SourceAlpha" operator="in" result="effect1_backgroundBlur_427_986"/>
<feBlend mode="normal" in="SourceGraphic" in2="effect1_backgroundBlur_427_986" result="shape"/>
</filter>
<filter id="filter1_d_427_986" x="22" y="474" width="536" height="102" filterUnits="userSpaceOnUse" color-interpolation-filters="sRGB">
<feFlood flood-opacity="0" result="BackgroundImageFix"/>
<feColorMatrix in="SourceAlpha" type="matrix" values="0 0 0 0 0 0 0 0 0 0 0 0 0 0 0 0 0 0 127 0" result="hardAlpha"/>
<feOffset dy="2"/>
<feGaussianBlur stdDeviation="2"/>
<feComposite in2="hardAlpha" operator="out"/>
<feColorMatrix type="matrix" values="0 0 0 0 0 0 0 0 0 0 0 0 0 0 0 0 0 0 0.08 0"/>
<feBlend mode="normal" in2="BackgroundImageFix" result="effect1_dropShadow_427_986"/>
<feBlend mode="normal" in="SourceGraphic" in2="effect1_dropShadow_427_986" result="shape"/>
</filter>
<filter id="filter2_d_427_986" x="410" y="480" width="142" height="64" filterUnits="userSpaceOnUse" color-interpolation-filters="sRGB">
<feFlood flood-opacity="0" result="BackgroundImageFix"/>
<feColorMatrix in="SourceAlpha" type="matrix" values="0 0 0 0 0 0 0 0 0 0 0 0 0 0 0 0 0 0 127 0" result="hardAlpha"/>
<feOffset dy="2"/>
<feGaussianBlur stdDeviation="3"/>
<feComposite in2="hardAlpha" operator="out"/>
<feColorMatrix type="matrix" values="0 0 0 0 0 0 0 0 0 0 0 0 0 0 0 0 0 0 0.12 0"/>
<feBlend mode="normal" in2="BackgroundImageFix" result="effect1_dropShadow_427_986"/>
<feBlend mode="normal" in="SourceGraphic" in2="effect1_dropShadow_427_986" result="shape"/>
</filter>
<filter id="filter3_d_427_986" x="414" y="486" width="56" height="56" filterUnits="userSpaceOnUse" color-interpolation-filters="sRGB">
<feFlood flood-opacity="0" result="BackgroundImageFix"/>
<feColorMatrix in="SourceAlpha" type="matrix" values="0 0 0 0 0 0 0 0 0 0 0 0 0 0 0 0 0 0 127 0" result="hardAlpha"/>
<feOffset dy="4"/>
<feGaussianBlur stdDeviation="8"/>
<feComposite in2="hardAlpha" operator="out"/>
<feColorMatrix type="matrix" values="0 0 0 0 0.0745098 0 0 0 0 0.709804 0 0 0 0 0.92549 0 0 0 0.24 0"/>
<feBlend mode="normal" in2="BackgroundImageFix" result="effect1_dropShadow_427_986"/>
<feBlend mode="normal" in="SourceGraphic" in2="effect1_dropShadow_427_986" result="shape"/>
</filter>
<filter id="filter4_d_427_986" x="22" y="620" width="536" height="102" filterUnits="userSpaceOnUse" color-interpolation-filters="sRGB">
<feFlood flood-opacity="0" result="BackgroundImageFix"/>
<feColorMatrix in="SourceAlpha" type="matrix" values="0 0 0 0 0 0 0 0 0 0 0 0 0 0 0 0 0 0 127 0" result="hardAlpha"/>
<feOffset dy="2"/>
<feGaussianBlur stdDeviation="2"/>
<feComposite in2="hardAlpha" operator="out"/>
<feColorMatrix type="matrix" values="0 0 0 0 0 0 0 0 0 0 0 0 0 0 0 0 0 0 0.08 0"/>
<feBlend mode="normal" in2="BackgroundImageFix" result="effect1_dropShadow_427_986"/>
<feBlend mode="normal" in="SourceGraphic" in2="effect1_dropShadow_427_986" result="shape"/>
</filter>
<filter id="filter5_d_427_986" x="410" y="626" width="142" height="64" filterUnits="userSpaceOnUse" color-interpolation-filters="sRGB">
<feFlood flood-opacity="0" result="BackgroundImageFix"/>
<feColorMatrix in="SourceAlpha" type="matrix" values="0 0 0 0 0 0 0 0 0 0 0 0 0 0 0 0 0 0 127 0" result="hardAlpha"/>
<feOffset dy="2"/>
<feGaussianBlur stdDeviation="3"/>
<feComposite in2="hardAlpha" operator="out"/>
<feColorMatrix type="matrix" values="0 0 0 0 0 0 0 0 0 0 0 0 0 0 0 0 0 0 0.12 0"/>
<feBlend mode="normal" in2="BackgroundImageFix" result="effect1_dropShadow_427_986"/>
<feBlend mode="normal" in="SourceGraphic" in2="effect1_dropShadow_427_986" result="shape"/>
</filter>
<filter id="filter6_d_427_986" x="414" y="632" width="56" height="56" filterUnits="userSpaceOnUse" color-interpolation-filters="sRGB">
<feFlood flood-opacity="0" result="BackgroundImageFix"/>
<feColorMatrix in="SourceAlpha" type="matrix" values="0 0 0 0 0 0 0 0 0 0 0 0 0 0 0 0 0 0 127 0" result="hardAlpha"/>
<feOffset dy="4"/>
<feGaussianBlur stdDeviation="8"/>
<feComposite in2="hardAlpha" operator="out"/>
<feColorMatrix type="matrix" values="0 0 0 0 0.0862745 0 0 0 0 0.0941176 0 0 0 0 0.113725 0 0 0 0.24 0"/>
<feBlend mode="normal" in2="BackgroundImageFix" result="effect1_dropShadow_427_986"/>
<feBlend mode="normal" in="SourceGraphic" in2="effect1_dropShadow_427_986" result="shape"/>
</filter>
<filter id="filter7_b_427_986" x="260" y="566" width="60" height="60" filterUnits="userSpaceOnUse" color-interpolation-filters="sRGB">
<feFlood flood-opacity="0" result="BackgroundImageFix"/>
<feGaussianBlur in="BackgroundImage" stdDeviation="8"/>
<feComposite in2="SourceAlpha" operator="in" result="effect1_backgroundBlur_427_986"/>
<feBlend mode="normal" in="SourceGraphic" in2="effect1_backgroundBlur_427_986" result="shape"/>
</filter>
<clipPath id="clip0_427_986">
<path d="M0 48C0 21.4903 21.4903 0 48 0H532C558.51 0 580 21.4903 580 48V652C580 678.51 558.51 700 532 700H48C21.4903 700 0 678.51 0 652V48Z" fill="white"/>
</clipPath>
<clipPath id="clip1_427_986">
<rect x="10" y="378" width="560" height="490" rx="24" fill="white"/>
</clipPath>
</defs>
</svg>
