<svg width="246" height="78" viewBox="0 0 246 78" fill="none" xmlns="http://www.w3.org/2000/svg">
<path d="M3 39C3 19.1178 19.1178 3 39 3C58.8823 3 75 19.1178 75 39C75 58.8823 58.8823 75 39 75C19.1178 75 3 58.8823 3 39Z" fill="white" fill-opacity="0.08"/>
<path d="M54.8746 33.871C55.5911 29.0802 51.9437 26.5049 46.9562 24.787L48.5742 18.2974L44.6238 17.3131L43.0487 23.6318C42.0102 23.3728 40.9436 23.1287 39.8836 22.8868L41.4701 16.5263L37.5222 15.542L35.9033 22.0295C35.0439 21.8338 34.1998 21.6404 33.3808 21.4366L33.3854 21.4162L27.9377 20.0558L26.8869 24.2751C26.8869 24.2751 29.8177 24.947 29.756 24.9883C31.3557 25.3876 31.645 26.4465 31.5969 27.2859L29.7539 34.679C29.864 34.707 30.0069 34.7475 30.1646 34.8108C30.0328 34.7781 29.8925 34.7424 29.747 34.7075L27.1637 45.0643C26.9682 45.5503 26.4719 46.2797 25.3535 46.0027C25.3931 46.0601 22.4823 45.2862 22.4823 45.2862L20.521 49.8081L25.6618 51.0897C26.6182 51.3295 27.5554 51.5804 28.4783 51.8164L26.8436 58.3804L30.7894 59.3648L32.4083 52.8704C33.4863 53.1631 34.5324 53.433 35.5565 53.6874L33.9431 60.1512L37.8936 61.1355L39.5282 54.5838C46.2645 55.8587 51.3296 55.3447 53.4616 49.2517C55.1795 44.3462 53.3761 41.5167 49.8321 39.6715C52.4134 39.0762 54.3576 37.3785 54.876 33.8715L54.8748 33.8706L54.8746 33.871ZM45.8488 46.5274C44.628 51.433 36.3686 48.7812 33.6907 48.1162L35.86 39.42C38.5377 40.0885 47.1247 41.4114 45.849 46.5274H45.8488ZM47.0705 33.7999C45.9569 38.262 39.0825 35.9951 36.8525 35.4392L38.8192 27.5523C41.0492 28.1082 48.2307 29.1456 47.0709 33.7999H47.0705Z" fill="white"/>
<path d="M39 72C20.7746 72 6 57.2254 6 39H0C0 60.5391 17.4609 78 39 78V72ZM72 39C72 57.2254 57.2254 72 39 72V78C60.5391 78 78 60.5391 78 39H72ZM39 6C57.2254 6 72 20.7746 72 39H78C78 17.4609 60.5391 0 39 0V6ZM39 0C17.4609 0 0 17.4609 0 39H6C6 20.7746 20.7746 6 39 6V0Z" fill="white" fill-opacity="0.12"/>
<path d="M171 39C171 19.1178 187.118 3 207 3C226.882 3 243 19.1178 243 39C243 58.8823 226.882 75 207 75C187.118 75 171 58.8823 171 39Z" fill="white" fill-opacity="0.08"/>
<path fill-rule="evenodd" clip-rule="evenodd" d="M221.625 28.5L187.5 49.5H226.5L221.625 28.5ZM192.375 28.5L203.746 37.089L187.5 49.5L192.375 28.5Z" fill="white"/>
<path d="M207 72C188.775 72 174 57.2254 174 39H168C168 60.5391 185.461 78 207 78V72ZM240 39C240 57.2254 225.225 72 207 72V78C228.539 78 246 60.5391 246 39H240ZM207 6C225.225 6 240 20.7746 240 39H246C246 17.4609 228.539 0 207 0V6ZM207 0C185.461 0 168 17.4609 168 39H174C174 20.7746 188.775 6 207 6V0Z" fill="white" fill-opacity="0.12"/>
<rect x="95" y="23" width="56" height="32" rx="16" fill="#43A1F7"/>
<rect x="95" y="23" width="56" height="32" rx="16" fill="url(#paint0_linear_392_709)"/>
<circle cx="135" cy="39" r="14" fill="white"/>
<path fill-rule="evenodd" clip-rule="evenodd" d="M138.25 34.0002C138.25 33.4939 137.84 33.0835 137.333 33.0835H137.28C136.852 33.0835 136.474 33.3645 136.351 33.7749L136.008 34.9168H137.333C137.84 34.9168 138.25 34.5064 138.25 34.0002ZM139.57 34.9168C139.686 34.6342 139.75 34.3246 139.75 34.0002C139.75 32.6655 138.668 31.5835 137.333 31.5835H137.28C136.275 31.5835 135.38 32.1905 135 33.1027C134.62 32.1905 133.725 31.5835 132.72 31.5835H132.667C131.332 31.5835 130.25 32.6655 130.25 34.0002C130.25 34.3246 130.314 34.6342 130.43 34.9168H129.333C128.367 34.9168 127.583 35.7003 127.583 36.6668C127.583 37.6333 128.367 38.4168 129.333 38.4168H140.667C141.633 38.4168 142.417 37.6333 142.417 36.6668C142.417 35.7003 141.633 34.9168 140.667 34.9168H139.57ZM132.667 34.9168H133.992L133.65 33.7749C133.526 33.3645 133.149 33.0835 132.72 33.0835H132.667C132.161 33.0835 131.75 33.4939 131.75 34.0002C131.75 34.5064 132.161 34.9168 132.667 34.9168ZM131.287 38.9167L131.381 38.9168H138.619L138.713 38.9167C139.095 38.916 139.46 38.9153 139.778 39.0263C140.338 39.2223 140.778 39.6627 140.974 40.2228C141.085 40.54 141.084 40.9052 141.084 41.2873L141.083 41.3811L141.084 41.5301V41.5301C141.084 42.5824 141.084 43.3017 140.873 43.9054C140.496 44.9826 139.649 45.8295 138.572 46.2064C137.968 46.4176 137.249 46.4173 136.197 46.4169L136.048 46.4168H133.953L133.804 46.4169C132.751 46.4173 132.032 46.4176 131.428 46.2064C130.351 45.8295 129.504 44.9826 129.127 43.9054C128.916 43.3017 128.916 42.5824 128.917 41.5301L128.917 41.3811L128.917 41.2873C128.916 40.9052 128.915 40.54 129.026 40.2228C129.222 39.6627 129.663 39.2223 130.223 39.0263C130.54 38.9153 130.905 38.916 131.287 38.9167Z" fill="#43A1F7"/>
<defs>
<linearGradient id="paint0_linear_392_709" x1="151" y1="23" x2="92.9464" y2="27.3046" gradientUnits="userSpaceOnUse">
<stop stop-color="#577CFF"/>
<stop offset="1" stop-color="#4CBFFF"/>
</linearGradient>
</defs>
</svg>
