<svg width="380" height="200" viewBox="0 0 380 200" fill="none" xmlns="http://www.w3.org/2000/svg">
<path d="M40 167.5L50.518 150.637C52.0085 148.248 55.4783 148.221 57.0051 150.588V150.588C58.653 153.141 62.4734 152.861 63.7304 150.094L74.0189 127.444C75.4698 124.251 80.0364 124.338 81.3635 127.586L83.4106 132.595C84.7265 135.815 89.2429 135.933 90.7307 132.789V132.789C92.1865 129.713 96.5766 129.741 97.9879 132.838L103.074 143.999C104.497 147.123 108.936 147.121 110.355 143.995L115.652 132.336C116.588 130.274 119.522 130.293 120.433 132.365V132.365C121.501 134.795 125.09 134.278 125.428 131.645L130.998 88.2338C131.371 85.3301 134.634 83.7972 137.107 85.3642L145.652 90.7796C145.883 90.9261 146.099 91.0961 146.296 91.2867L162.075 106.588C162.357 106.861 162.597 107.174 162.787 107.518L169.02 118.746C170.539 121.481 174.467 121.493 176.003 118.768L180.145 111.414C181.807 108.464 186.154 108.784 187.366 111.946L188.663 115.332C189.971 118.747 194.797 118.761 196.125 115.354L200.427 104.315C201.895 100.545 207.392 101.089 208.093 105.073L209.797 114.752C210.552 119.038 216.642 119.206 217.632 114.968L224.037 87.5449C224.882 83.9268 229.774 83.3153 231.483 86.6139L238.964 101.045C240.358 103.735 244.119 103.959 245.823 101.454L248.102 98.1028C250.015 95.2917 254.34 95.9964 255.26 99.2691L259.196 113.258C260.312 117.223 265.969 117.117 266.935 113.113L272.375 90.5642C273.317 86.6571 278.787 86.4246 280.058 90.2377L284.688 104.132C285.659 107.047 289.721 107.208 290.921 104.38L291.267 103.565C292.219 101.321 295.344 101.173 296.503 103.317V103.317C297.65 105.438 300.73 105.323 301.716 103.124L317.257 68.4551C318.494 65.6967 322.446 65.8041 323.531 68.6258V68.6258C324.654 71.5466 328.794 71.5262 329.888 68.5945L340 41.5" stroke="#43A1F7" stroke-width="3"/>
<path d="M40 167.5L50.518 150.637C52.0085 148.248 55.4783 148.221 57.0051 150.588V150.588C58.653 153.141 62.4734 152.861 63.7304 150.094L74.0189 127.444C75.4698 124.251 80.0364 124.338 81.3635 127.586L83.4106 132.595C84.7265 135.815 89.2429 135.933 90.7307 132.789V132.789C92.1865 129.713 96.5766 129.741 97.9879 132.838L103.074 143.999C104.497 147.123 108.936 147.121 110.355 143.995L115.652 132.336C116.588 130.274 119.522 130.293 120.433 132.365V132.365C121.501 134.795 125.09 134.278 125.428 131.645L130.998 88.2338C131.371 85.3301 134.634 83.7972 137.107 85.3642L145.652 90.7796C145.883 90.9261 146.099 91.0961 146.296 91.2867L162.075 106.588C162.357 106.861 162.597 107.174 162.787 107.518L169.02 118.746C170.539 121.481 174.467 121.493 176.003 118.768L180.145 111.414C181.807 108.464 186.154 108.784 187.366 111.946L188.663 115.332C189.971 118.747 194.797 118.761 196.125 115.354L200.427 104.315C201.895 100.545 207.392 101.089 208.093 105.073L209.797 114.752C210.552 119.038 216.642 119.206 217.632 114.968L224.037 87.5449C224.882 83.9268 229.774 83.3153 231.483 86.6139L238.964 101.045C240.358 103.735 244.119 103.959 245.823 101.454L248.102 98.1028C250.015 95.2917 254.34 95.9964 255.26 99.2691L259.196 113.258C260.312 117.223 265.969 117.117 266.935 113.113L272.375 90.5642C273.317 86.6571 278.787 86.4246 280.058 90.2377L284.688 104.132C285.659 107.047 289.721 107.208 290.921 104.38L291.267 103.565C292.219 101.321 295.344 101.173 296.503 103.317V103.317C297.65 105.438 300.73 105.323 301.716 103.124L317.257 68.4551C318.494 65.6967 322.446 65.8041 323.531 68.6258V68.6258C324.654 71.5466 328.794 71.5262 329.888 68.5945L340 41.5" stroke="url(#paint0_linear_392_670)" stroke-width="3"/>
<rect x="135" y="45" width="110" height="110" rx="55" fill="#1D2022"/>
<path d="M142 100C142 73.4903 163.49 52 190 52C216.51 52 238 73.4903 238 100C238 126.51 216.51 148 190 148C163.49 148 142 126.51 142 100Z" fill="white" fill-opacity="0.08"/>
<path fill-rule="evenodd" clip-rule="evenodd" d="M209.5 86L164 114H216L209.5 86ZM170.5 86L185.661 97.452L164 114L170.5 86Z" fill="white"/>
<path d="M190 145C165.147 145 145 124.853 145 100H139C139 128.167 161.833 151 190 151V145ZM235 100C235 124.853 214.853 145 190 145V151C218.167 151 241 128.167 241 100H235ZM190 55C214.853 55 235 75.1472 235 100H241C241 71.8335 218.167 49 190 49V55ZM190 49C161.833 49 139 71.8335 139 100H145C145 75.1472 165.147 55 190 55V49Z" fill="white" fill-opacity="0.08"/>
<defs>
<linearGradient id="paint0_linear_392_670" x1="340" y1="41.5001" x2="30.4393" y2="72.7293" gradientUnits="userSpaceOnUse">
<stop stop-color="#577CFF"/>
<stop offset="1" stop-color="#4CBFFF"/>
</linearGradient>
</defs>
</svg>
